<?xml version="1.0" encoding="utf-8"?>
<!-- Generator: Adobe Illustrator 22.1.0, SVG Export Plug-In . SVG Version: 6.00 Build 0)  -->
<svg version="1.1" id="Layer_1" xmlns="http://www.w3.org/2000/svg" xmlns:xlink="http://www.w3.org/1999/xlink" x="0px" y="0px"
	 viewBox="0 0 500 281" style="enable-background:new 0 0 500 281;" xml:space="preserve">
<style type="text/css">
	.st0{clip-path:url(#SVGID_2_);}
	.st1{fill:#D6D6D6;}
	.st2{opacity:0.4;}
	.st3{fill:#FFFFFF;}
	.st4{fill:#A5A5A5;}
	.st5{fill:#00A1E0;}
	.st6{fill:#FCB960;}
	.st7{fill:#E55151;}
	.st8{fill:#CCCCCC;}
	.st9{fill:#50D168;}
	.st10{opacity:0;}
	.st11{opacity:0.15;}
	.st12{fill:#F79B14;}
	.st13{display:none;}
	.st14{display:inline;}
	.st15{display:inline;fill:#FFFFFF;}
	.st16{display:inline;fill:#A5A5A5;}
	.st17{fill:#EFF8F9;}
	.st18{display:inline;fill:#EFF8F9;}
</style>
<g>
	<g>
		<defs>
			<rect id="SVGID_1_" width="500" height="281"/>
		</defs>
		<clipPath id="SVGID_2_">
			<use xlink:href="#SVGID_1_"  style="overflow:visible;"/>
		</clipPath>
		<g class="st0">
			<g>
				<g>
					<path class="st1" d="M0,0v281h500V0H0z M16.3,39.3c-6.4,0-6.4-10,0-10C22.8,29.3,22.8,39.3,16.3,39.3z"/>
				</g>
			</g>
			<g class="st2">
				<g>
					<path class="st3" d="M0,0v140.9l34.5-14.6l12.5,8.6l42.3,5.3l21.6-13.9l30.7,13.8l36.7-16.3l22.6,5.1l49.2-13.8l19.3,10.2
						l73-32.9l22.8-24.8l35.1,10.3l27.1-5.6l43.2,18.3L500,71.1V0H0z M16.3,39.3c-6.4,0-6.4-10,0-10C22.8,29.3,22.8,39.3,16.3,39.3z
						"/>
				</g>
			</g>
			<g>
				<g>
					<polygon class="st4" points="-5.3,143.8 -5.7,142.9 34.4,125.9 46.8,134.4 89.4,139.7 111,125.9 141.7,139.7 178.4,123.4 
						200.9,128.5 250.1,114.7 269.4,124.9 342.7,91.8 365.3,67.1 365.6,67.2 400.3,77.4 427.4,71.8 427.5,71.8 470.7,90.1 
						505.2,67.3 505.8,68.1 470.8,91.2 427.3,72.8 400.2,78.4 400.1,78.4 365.6,68.3 343.3,92.6 343.2,92.7 269.4,126 249.9,115.7 
						201,129.5 178.5,124.4 141.7,140.8 111,127 89.7,140.8 46.4,135.4 34.3,127 					"/>
				</g>
			</g>
			<g>
				<g>
					<circle class="st3" cx="34.4" cy="126.7" r="3.6"/>
				</g>
				<g>
					<path class="st4" d="M34.4,130.8c-2.3,0-4.1-1.9-4.1-4.1c0-2.3,1.9-4.1,4.1-4.1c2.3,0,4.1,1.9,4.1,4.1
						C38.5,129,36.6,130.8,34.4,130.8z M34.4,123.6c-1.7,0-3.1,1.4-3.1,3.1c0,1.7,1.4,3.1,3.1,3.1c1.7,0,3.1-1.4,3.1-3.1
						C37.5,125,36.1,123.6,34.4,123.6z"/>
				</g>
			</g>
			<g>
				<g>
					<circle class="st3" cx="46.5" cy="134.8" r="3.6"/>
				</g>
				<g>
					<path class="st4" d="M46.5,139c-2.3,0-4.1-1.9-4.1-4.1s1.9-4.1,4.1-4.1c2.3,0,4.1,1.9,4.1,4.1S48.8,139,46.5,139z M46.5,131.7
						c-1.7,0-3.1,1.4-3.1,3.1c0,1.7,1.4,3.1,3.1,3.1c1.7,0,3.1-1.4,3.1-3.1C49.6,133.1,48.2,131.7,46.5,131.7z"/>
				</g>
			</g>
			<g>
				<g>
					<circle class="st3" cx="89.4" cy="139.7" r="3.6"/>
				</g>
				<g>
					<path class="st4" d="M89.4,143.8c-2.3,0-4.1-1.9-4.1-4.1c0-2.3,1.9-4.1,4.1-4.1c2.3,0,4.1,1.9,4.1,4.1
						C93.5,142,91.6,143.8,89.4,143.8z M89.4,136.5c-1.7,0-3.1,1.4-3.1,3.1c0,1.7,1.4,3.1,3.1,3.1s3.1-1.4,3.1-3.1
						C92.5,137.9,91.1,136.5,89.4,136.5z"/>
				</g>
			</g>
			<g>
				<g>
					<circle class="st3" cx="111" cy="126.7" r="3.6"/>
				</g>
				<g>
					<path class="st4" d="M111,130.8c-2.3,0-4.1-1.9-4.1-4.1c0-2.3,1.9-4.1,4.1-4.1c2.3,0,4.1,1.9,4.1,4.1
						C115.1,129,113.3,130.8,111,130.8z M111,123.6c-1.7,0-3.1,1.4-3.1,3.1c0,1.7,1.4,3.1,3.1,3.1s3.1-1.4,3.1-3.1
						C114.1,125,112.7,123.6,111,123.6z"/>
				</g>
			</g>
			<g>
				<g>
					<circle class="st3" cx="141.7" cy="139.7" r="3.6"/>
				</g>
				<g>
					<path class="st4" d="M141.7,143.8c-2.3,0-4.1-1.9-4.1-4.1c0-2.3,1.9-4.1,4.1-4.1s4.1,1.9,4.1,4.1
						C145.9,142,144,143.8,141.7,143.8z M141.7,136.5c-1.7,0-3.1,1.4-3.1,3.1c0,1.7,1.4,3.1,3.1,3.1c1.7,0,3.1-1.4,3.1-3.1
						C144.9,137.9,143.5,136.5,141.7,136.5z"/>
				</g>
			</g>
			<g>
				<g>
					<circle class="st3" cx="178.2" cy="124" r="3.6"/>
				</g>
				<g>
					<path class="st4" d="M178.2,128.1c-2.3,0-4.1-1.9-4.1-4.1c0-2.3,1.9-4.1,4.1-4.1s4.1,1.9,4.1,4.1
						C182.4,126.2,180.5,128.1,178.2,128.1z M178.2,120.8c-1.7,0-3.1,1.4-3.1,3.1s1.4,3.1,3.1,3.1s3.1-1.4,3.1-3.1
						S180,120.8,178.2,120.8z"/>
				</g>
			</g>
			<g>
				<g>
					<circle class="st3" cx="201" cy="128.8" r="3.6"/>
				</g>
				<g>
					<path class="st4" d="M201,133c-2.3,0-4.1-1.9-4.1-4.1c0-2.3,1.9-4.1,4.1-4.1s4.1,1.9,4.1,4.1C205.1,131.1,203.3,133,201,133z
						 M201,125.7c-1.7,0-3.1,1.4-3.1,3.1c0,1.7,1.4,3.1,3.1,3.1s3.1-1.4,3.1-3.1C204.1,127.1,202.7,125.7,201,125.7z"/>
				</g>
			</g>
			<g>
				<g>
					<path class="st3" d="M253.6,115.2c0-2-1.6-3.6-3.6-3.6c-2,0-3.6,1.6-3.6,3.6c0,2,1.6,3.6,3.6,3.6
						C252,118.8,253.6,117.2,253.6,115.2z"/>
				</g>
				<g>
					<path class="st4" d="M250,119.3c-2.3,0-4.1-1.9-4.1-4.1c0-2.3,1.9-4.1,4.1-4.1c2.3,0,4.1,1.9,4.1,4.1
						C254.1,117.5,252.3,119.3,250,119.3z M250,112.1c-1.7,0-3.1,1.4-3.1,3.1s1.4,3.1,3.1,3.1c1.7,0,3.1-1.4,3.1-3.1
						S251.7,112.1,250,112.1z"/>
				</g>
			</g>
			<g>
				<g>
					<path class="st3" d="M273.1,125.2c0-2-1.6-3.6-3.6-3.6c-2,0-3.6,1.6-3.6,3.6c0,2,1.6,3.6,3.6,3.6
						C271.5,128.8,273.1,127.2,273.1,125.2z"/>
				</g>
				<g>
					<path class="st4" d="M269.5,129.3c-2.3,0-4.1-1.9-4.1-4.1c0-2.3,1.9-4.1,4.1-4.1c2.3,0,4.1,1.9,4.1,4.1
						C273.6,127.5,271.8,129.3,269.5,129.3z M269.5,122c-1.7,0-3.1,1.4-3.1,3.1c0,1.7,1.4,3.1,3.1,3.1s3.1-1.4,3.1-3.1
						C272.6,123.5,271.2,122,269.5,122z"/>
				</g>
			</g>
			<g>
				<g>
					<path class="st3" d="M346.8,92.1c0-2-1.6-3.6-3.6-3.6c-2,0-3.6,1.6-3.6,3.6c0,2,1.6,3.6,3.6,3.6
						C345.1,95.7,346.8,94.1,346.8,92.1z"/>
				</g>
				<g>
					<path class="st4" d="M343.1,96.2c-2.3,0-4.1-1.9-4.1-4.1c0-2.3,1.9-4.1,4.1-4.1c2.3,0,4.1,1.9,4.1,4.1
						C347.3,94.4,345.4,96.2,343.1,96.2z M343.1,88.9c-1.7,0-3.1,1.4-3.1,3.1s1.4,3.1,3.1,3.1s3.1-1.4,3.1-3.1
						S344.8,88.9,343.1,88.9z"/>
				</g>
			</g>
			<g>
				<g>
					<path class="st3" d="M368.8,67.7c0-2-1.6-3.6-3.6-3.6c-2,0-3.6,1.6-3.6,3.6c0,2,1.6,3.6,3.6,3.6
						C367.1,71.3,368.8,69.7,368.8,67.7z"/>
				</g>
				<g>
					<path class="st4" d="M365.1,71.8c-2.3,0-4.1-1.9-4.1-4.1c0-2.3,1.9-4.1,4.1-4.1c2.3,0,4.1,1.9,4.1,4.1
						C369.3,70,367.4,71.8,365.1,71.8z M365.1,64.5c-1.7,0-3.1,1.4-3.1,3.1c0,1.7,1.4,3.1,3.1,3.1s3.1-1.4,3.1-3.1
						C368.3,66,366.8,64.5,365.1,64.5z"/>
				</g>
			</g>
			<g>
				<g>
					<path class="st3" d="M403.8,78c0-2-1.6-3.6-3.6-3.6c-2,0-3.6,1.6-3.6,3.6c0,2,1.6,3.6,3.6,3.6C402.1,81.6,403.8,80,403.8,78z"
						/>
				</g>
				<g>
					<path class="st4" d="M400.1,82.1c-2.3,0-4.1-1.9-4.1-4.1c0-2.3,1.9-4.1,4.1-4.1c2.3,0,4.1,1.9,4.1,4.1
						C404.3,80.2,402.4,82.1,400.1,82.1z M400.1,74.8c-1.7,0-3.1,1.4-3.1,3.1s1.4,3.1,3.1,3.1s3.1-1.4,3.1-3.1
						S401.8,74.8,400.1,74.8z"/>
				</g>
			</g>
			<g>
				<g>
					<path class="st3" d="M430.9,72.3c0-2-1.6-3.6-3.6-3.6c-2,0-3.6,1.6-3.6,3.6c0,2,1.6,3.6,3.6,3.6
						C429.2,76,430.9,74.3,430.9,72.3z"/>
				</g>
				<g>
					<path class="st4" d="M427.2,76.5c-2.3,0-4.1-1.9-4.1-4.1c0-2.3,1.9-4.1,4.1-4.1c2.3,0,4.1,1.9,4.1,4.1
						C431.4,74.6,429.5,76.5,427.2,76.5z M427.2,69.2c-1.7,0-3.1,1.4-3.1,3.1s1.4,3.1,3.1,3.1s3.1-1.4,3.1-3.1S429,69.2,427.2,69.2z
						"/>
				</g>
			</g>
			<g>
				<g>
					<path class="st3" d="M474.4,90.5c0-2-1.6-3.6-3.6-3.6c-2,0-3.6,1.6-3.6,3.6c0,2,1.6,3.6,3.6,3.6
						C472.7,94.1,474.4,92.5,474.4,90.5z"/>
				</g>
				<g>
					<path class="st4" d="M470.7,94.6c-2.3,0-4.1-1.9-4.1-4.1c0-2.3,1.9-4.1,4.1-4.1c2.3,0,4.1,1.9,4.1,4.1
						C474.9,92.7,473,94.6,470.7,94.6z M470.7,87.3c-1.7,0-3.1,1.4-3.1,3.1s1.4,3.1,3.1,3.1s3.1-1.4,3.1-3.1S472.5,87.3,470.7,87.3z
						"/>
				</g>
			</g>
			<g>
				<g>
					<path class="st3" d="M503.6,71.3c0-2-1.6-3.6-3.6-3.6c-2,0-3.6,1.6-3.6,3.6c0,2,1.6,3.6,3.6,3.6C502,75,503.6,73.3,503.6,71.3z
						"/>
				</g>
				<g>
					<path class="st4" d="M500,75.5c-2.3,0-4.1-1.9-4.1-4.1c0-2.3,1.9-4.1,4.1-4.1c2.3,0,4.1,1.9,4.1,4.1
						C504.1,73.6,502.3,75.5,500,75.5z M500,68.2c-1.7,0-3.1,1.4-3.1,3.1s1.4,3.1,3.1,3.1c1.7,0,3.1-1.4,3.1-3.1
						S501.7,68.2,500,68.2z"/>
				</g>
			</g>
		</g>
	</g>
	<g>
		<g>
			<g>
				<g>
					<path class="st3" d="M392,234.6H111.6H99.3v7c0,3.7,3,6.8,6.8,6.8h5.6H392h5.6c3.7,0,6.8-3,6.8-6.8v-7H392z"/>
				</g>
				<g>
					<g>
						<path d="M392,232.7c-43.2,0-86.5,0-129.7,0c-49.5,0-99.1,0-148.6,0c-4.8,0-9.6,0-14.4,0c-1,0-1.9,0.9-1.9,1.9
							c0,7-0.3,14.7,8.7,15.6c2.2,0.2,4.5,0,6.8,0c5.8,0,11.6,0,17.3,0c26,0,51.9,0,77.9,0c57,0,113.9,0,170.9,0c4.2,0,8.4,0,12.5,0
							c2.5,0,5.6,0.5,8-0.2c7.5-2.3,6.8-9,6.8-15.4c0-1-0.9-1.9-1.9-1.9C400.2,232.7,396.1,232.7,392,232.7c-2.4,0-2.4,3.8,0,3.8
							c4.1,0,8.2,0,12.4,0c-0.6-0.6-1.3-1.3-1.9-1.9c0,3.2,0.8,7.7-1.4,10.5c-1.8,2.2-6.6,1.4-9.1,1.4c-1.2,0-2.3,0-3.5,0
							c-7.2,0-14.5,0-21.7,0c-27.6,0-55.1,0-82.7,0c-54.7,0-109.5,0-164.2,0c-2.5,0-5.1,0-7.6,0c-1.3,0-2.5,0-3.8,0
							c-3.6,0-7.2-0.8-7.2-5.5c0-2.1,0-4.3,0-6.4c-0.6,0.6-1.3,1.3-1.9,1.9c41.1,0,82.2,0,123.3,0c54.1,0,108.2,0,162.3,0
							c2.4,0,4.7,0,7.1,0C394.4,236.5,394.4,232.7,392,232.7z"/>
					</g>
				</g>
			</g>
			<g>
				<g>
					<g>
						<rect x="132.9" y="79.8" width="237.9" height="154.8"/>
					</g>
					<g>
						<g>
							<path d="M370.8,232.7c-46.8,0-93.6,0-140.3,0c-32.5,0-65,0-97.6,0c0.6,0.6,1.3,1.3,1.9,1.9c0-48.8,0-97.6,0-146.4
								c0-2.8,0-5.6,0-8.4c-0.6,0.6-1.3,1.3-1.9,1.9c46.8,0,93.6,0,140.3,0c32.5,0,65,0,97.6,0c-0.6-0.6-1.3-1.3-1.9-1.9
								c0,48.8,0,97.6,0,146.4c0,2.8,0,5.6,0,8.4c0,2.4,3.8,2.4,3.8,0c0-48.8,0-97.6,0-146.4c0-2.8,0-5.6,0-8.4c0-1-0.9-1.9-1.9-1.9
								c-46.8,0-93.6,0-140.3,0c-32.5,0-65,0-97.6,0c-1,0-1.9,0.9-1.9,1.9c0,48.8,0,97.6,0,146.4c0,2.8,0,5.6,0,8.4
								c0,1,0.9,1.9,1.9,1.9c46.8,0,93.6,0,140.3,0c32.5,0,65,0,97.6,0C373.2,236.5,373.2,232.7,370.8,232.7z"/>
						</g>
					</g>
				</g>
				<g>
					<rect x="142.4" y="89.9" class="st3" width="218.8" height="134.6"/>
				</g>
			</g>
		</g>
		<g>
			<g>
				<g>
					<rect x="149.1" y="196.8" class="st5" width="9" height="20.6"/>
				</g>
				<g>
					<rect x="167" y="203.8" class="st5" width="9" height="13.7"/>
				</g>
				<g>
					<rect x="184.9" y="192.9" class="st5" width="9" height="24.6"/>
				</g>
				<g>
					<rect x="202.8" y="182.2" class="st5" width="9" height="35.3"/>
				</g>
				<g>
					<rect x="220.2" y="164.9" class="st5" width="9" height="52.5"/>
				</g>
				<g>
					<rect x="238.1" y="174.2" class="st5" width="9" height="43.3"/>
				</g>
				<g>
					<rect x="256" y="169.3" class="st5" width="9" height="48.2"/>
				</g>
				<g>
					<rect x="273.9" y="161.5" class="st5" width="9" height="55.9"/>
				</g>
				<g>
					<rect x="291.8" y="170.5" class="st5" width="9" height="47"/>
				</g>
				<g>
					<rect x="309.7" y="149.6" class="st5" width="9" height="67.9"/>
				</g>
				<g>
					<rect x="327.6" y="137.7" class="st5" width="9" height="79.8"/>
				</g>
				<g>
					<rect x="345.5" y="115.5" class="st5" width="9" height="101.9"/>
				</g>
			</g>
			<g>
				<g>
					<g>
						<polygon class="st6" points="171.7,193.4 152.8,186 154.4,181.7 171.3,188.2 188.2,177.9 205.9,167.3 224.3,149.1 
							242.9,158.7 259.7,154.1 278.5,146 295.7,154.6 312.7,134.8 330.5,122.9 348.2,101.1 351.8,104 333.7,126.4 315.8,138.4 
							296.9,160.4 278.3,151.1 261.1,158.5 242.4,163.7 225.1,154.8 208.7,171 190.6,181.9 						"/>
					</g>
				</g>
				<g>
					<g>
						<path class="st7" d="M158.1,183.9c0-2.5-2-4.5-4.5-4.5c-2.5,0-4.5,2-4.5,4.5c0,2.5,2,4.5,4.5,4.5
							C156.1,188.4,158.1,186.4,158.1,183.9z"/>
					</g>
					<g>
						<path class="st7" d="M176,190.4c0-2.5-2-4.5-4.5-4.5c-2.5,0-4.5,2-4.5,4.5c0,2.5,2,4.5,4.5,4.5C174,194.8,176,192.8,176,190.4
							z"/>
					</g>
					<g>
						<path class="st7" d="M193.9,179.5c0-2.5-2-4.5-4.5-4.5c-2.5,0-4.5,2-4.5,4.5c0,2.5,2,4.5,4.5,4.5
							C191.9,183.9,193.9,181.9,193.9,179.5z"/>
					</g>
					<g>
						<path class="st7" d="M211.8,168.7c0-2.5-2-4.5-4.5-4.5c-2.5,0-4.5,2-4.5,4.5c0,2.5,2,4.5,4.5,4.5
							C209.8,173.1,211.8,171.1,211.8,168.7z"/>
					</g>
					<g>
						<path class="st7" d="M229.2,152.2c0-2.5-2-4.5-4.5-4.5c-2.5,0-4.5,2-4.5,4.5c0,2.5,2,4.5,4.5,4.5
							C227.2,156.7,229.2,154.7,229.2,152.2z"/>
					</g>
					<g>
						<path class="st7" d="M247.1,160.9c0-2.5-2-4.5-4.5-4.5c-2.5,0-4.5,2-4.5,4.5c0,2.5,2,4.5,4.5,4.5
							C245.1,165.4,247.1,163.4,247.1,160.9z"/>
					</g>
					<g>
						<path class="st7" d="M265,156.4c0-2.5-2-4.5-4.5-4.5c-2.5,0-4.5,2-4.5,4.5c0,2.5,2,4.5,4.5,4.5C263,160.9,265,158.9,265,156.4
							z"/>
					</g>
					<g>
						<path class="st7" d="M282.9,148.9c0-2.5-2-4.5-4.5-4.5c-2.5,0-4.5,2-4.5,4.5c0,2.5,2,4.5,4.5,4.5
							C280.9,153.3,282.9,151.3,282.9,148.9z"/>
					</g>
					<g>
						<path class="st7" d="M300.8,156.7c0-2.5-2-4.5-4.5-4.5c-2.5,0-4.5,2-4.5,4.5c0,2.5,2,4.5,4.5,4.5
							C298.8,161.2,300.8,159.2,300.8,156.7z"/>
					</g>
					<g>
						<path class="st7" d="M318.7,136.9c0-2.5-2-4.5-4.5-4.5c-2.5,0-4.5,2-4.5,4.5c0,2.5,2,4.5,4.5,4.5
							C316.7,141.4,318.7,139.4,318.7,136.9z"/>
					</g>
					<g>
						<path class="st7" d="M336.6,124.7c0-2.5-2-4.5-4.5-4.5c-2.5,0-4.5,2-4.5,4.5c0,2.5,2,4.5,4.5,4.5
							C334.6,129.1,336.6,127.1,336.6,124.7z"/>
					</g>
					<g>
						<path class="st7" d="M354.5,102.5c0-2.5-2-4.5-4.5-4.5c-2.5,0-4.5,2-4.5,4.5c0,2.5,2,4.5,4.5,4.5
							C352.5,107,354.5,105,354.5,102.5z"/>
					</g>
				</g>
			</g>
		</g>
		<g>
			<g>
				<g>
					<path class="st7" d="M149.1,107.4l3.7-9.3h2.7l3.7,9.3h-2.5l-0.5-1.5h-3.9l-0.5,1.5H149.1z M152.9,103.9h2.4l-1-2.7
						c0-0.1-0.1-0.2-0.1-0.4c0-0.1-0.1-0.3-0.1-0.6c0,0.2-0.1,0.4-0.1,0.6c0,0.1-0.1,0.3-0.1,0.4L152.9,103.9z"/>
				</g>
				<g>
					<path class="st7" d="M160,107.4v-9.3h2.3l3.7,5.4c0-0.2,0-0.5,0-0.7c0-0.3,0-0.5,0-0.8v-3.8h2.5v9.3h-2.3l-3.7-5.3
						c0,0.2,0,0.5,0,0.7s0,0.5,0,0.8v3.8H160z"/>
				</g>
				<g>
					<path class="st7" d="M169.3,107.4l3.7-9.3h2.7l3.7,9.3h-2.5l-0.5-1.5h-3.9l-0.5,1.5H169.3z M173.1,103.9h2.4l-1-2.7
						c0-0.1-0.1-0.2-0.1-0.4c0-0.1-0.1-0.3-0.1-0.6c0,0.2-0.1,0.4-0.1,0.6c0,0.1-0.1,0.3-0.1,0.4L173.1,103.9z"/>
				</g>
				<g>
					<path class="st7" d="M182.7,98.1v7.1h4.3v2.2h-6.7v-9.3H182.7z"/>
				</g>
				<g>
					<path class="st7" d="M189.2,107.4v-3.2l-3.6-6.1h2.8l2.1,3.9l2.1-3.9h2.8l-3.6,6.1v3.2H189.2z"/>
				</g>
				<g>
					<path class="st7" d="M203.2,98.1v2.2h-2.6v7.1h-2.5v-7.1h-2.6v-2.2H203.2z"/>
				</g>
				<g>
					<path class="st7" d="M206.7,98.1v9.3h-2.5v-9.3H206.7z"/>
				</g>
				<g>
					<path class="st7" d="M208,102.9c0-0.9,0.1-1.6,0.4-2.3c0.3-0.6,0.7-1.1,1.1-1.6c0.5-0.4,1-0.7,1.6-0.9c0.6-0.2,1.2-0.3,1.9-0.3
						c0.5,0,0.9,0,1.4,0.1c0.5,0.1,0.9,0.2,1.3,0.4v2.3c-0.3-0.2-0.6-0.4-1-0.6c-0.4-0.1-0.8-0.2-1.2-0.2c-0.4,0-0.7,0.1-1.1,0.2
						c-0.4,0.1-0.7,0.3-0.9,0.5c-0.3,0.2-0.5,0.5-0.7,0.9c-0.2,0.4-0.3,0.8-0.3,1.3c0,0.5,0.1,0.8,0.3,1.2c0.2,0.3,0.4,0.6,0.7,0.8
						c0.3,0.2,0.6,0.4,0.9,0.5c0.4,0.1,0.7,0.1,1.1,0.1c0.5,0,0.9-0.1,1.3-0.2c0.4-0.1,0.8-0.3,1-0.6v2.4c-0.8,0.4-1.7,0.6-2.7,0.6
						c-0.6,0-1.3-0.1-1.9-0.3c-0.6-0.2-1.2-0.5-1.6-0.8c-0.5-0.4-0.9-0.9-1.2-1.5C208.2,104.4,208,103.7,208,102.9z"/>
				</g>
				<g>
					<path class="st7" d="M216.9,100.6c0-0.5,0.1-0.9,0.3-1.2c0.2-0.3,0.4-0.6,0.8-0.9c0.3-0.2,0.7-0.4,1.1-0.5
						c0.4-0.1,0.9-0.2,1.4-0.2c0.6,0,1.2,0.1,1.7,0.2c0.5,0.1,1,0.3,1.4,0.5v2.3c-0.4-0.3-0.9-0.5-1.4-0.7c-0.5-0.1-1-0.2-1.6-0.2
						c-0.5,0-0.8,0.1-0.9,0.2c-0.2,0.1-0.3,0.2-0.3,0.4c0,0.2,0.1,0.4,0.4,0.5c0.2,0.1,0.5,0.3,0.9,0.4c0.4,0.1,0.7,0.3,1.2,0.4
						c0.4,0.1,0.8,0.3,1.2,0.6c0.4,0.2,0.7,0.5,0.9,0.9c0.2,0.4,0.4,0.8,0.4,1.4c0,0.6-0.1,1-0.3,1.4c-0.2,0.4-0.5,0.7-0.8,0.9
						c-0.3,0.2-0.7,0.4-1.2,0.5c-0.5,0.1-0.9,0.1-1.4,0.1c-0.7,0-1.3-0.1-1.9-0.2c-0.6-0.1-1.2-0.4-1.7-0.6v-2.3
						c0.6,0.4,1.1,0.7,1.7,0.8c0.6,0.2,1.1,0.2,1.7,0.2c0.5,0,0.8,0,1.1-0.1c0.2-0.1,0.3-0.3,0.3-0.5c0-0.2-0.1-0.4-0.4-0.5
						c-0.2-0.1-0.5-0.3-0.9-0.4c-0.4-0.1-0.8-0.3-1.2-0.4c-0.4-0.1-0.8-0.3-1.2-0.6c-0.4-0.2-0.7-0.5-0.9-0.9
						C217,101.6,216.9,101.2,216.9,100.6z"/>
				</g>
			</g>
			<g>
				<g>
					<rect x="149.1" y="111.9" class="st8" width="99.6" height="3"/>
				</g>
				<g>
					<rect x="149.1" y="117.9" class="st8" width="89" height="3"/>
				</g>
				<g>
					<rect x="149.1" y="124" class="st8" width="95.8" height="3"/>
				</g>
				<g>
					<rect x="149.1" y="129.9" class="st8" width="75.6" height="3"/>
				</g>
				<g>
					<rect x="149.1" y="136" class="st8" width="37.8" height="3"/>
				</g>
			</g>
			<g>
				<g>
					<rect x="149.1" y="143.6" class="st9" width="30.2" height="8.2"/>
				</g>
				<g>
					<g>
						<path class="st3" d="M155,145.8c0.4,0,0.7,0.1,1,0.2c0.2,0.2,0.3,0.4,0.3,0.7c0,0.2,0,0.4-0.1,0.5c-0.1,0.1-0.2,0.2-0.4,0.3
							c0.1,0,0.2,0.1,0.3,0.1c0.1,0.1,0.2,0.1,0.2,0.2c0.1,0.1,0.1,0.2,0.2,0.3c0,0.1,0.1,0.2,0.1,0.3c0,0.2,0,0.4-0.1,0.5
							c-0.1,0.1-0.2,0.2-0.4,0.3c-0.1,0.1-0.3,0.1-0.5,0.2c-0.2,0-0.4,0-0.5,0h-1.6v-3.8H155z M155.5,148.4c0-0.1,0-0.3-0.1-0.3
							c-0.1-0.1-0.2-0.1-0.4-0.1h-0.7v0.8h0.7c0.1,0,0.3,0,0.4-0.1C155.4,148.7,155.5,148.6,155.5,148.4z M155.3,147
							c0-0.1,0-0.2-0.1-0.3c-0.1-0.1-0.2-0.1-0.3-0.1h-0.6v0.7l0.6,0c0.1,0,0.2,0,0.3-0.1C155.3,147.1,155.3,147.1,155.3,147z"/>
					</g>
					<g>
						<path class="st3" d="M160.3,145.8v2.3c0,0.3,0,0.5-0.1,0.7c-0.1,0.2-0.2,0.3-0.4,0.5c-0.2,0.1-0.3,0.2-0.5,0.3
							c-0.2,0.1-0.4,0.1-0.6,0.1c-0.2,0-0.4,0-0.6-0.1c-0.2-0.1-0.4-0.1-0.5-0.3c-0.2-0.1-0.3-0.3-0.4-0.5c-0.1-0.2-0.1-0.4-0.1-0.7
							v-2.3h1v2.3c0,0.3,0.1,0.4,0.2,0.5c0.1,0.1,0.3,0.1,0.5,0.1s0.4,0,0.5-0.1c0.1-0.1,0.2-0.3,0.2-0.5v-2.3H160.3z"/>
					</g>
					<g>
						<path class="st3" d="M163.8,145.8v0.9h-1.1v2.9h-1v-2.9h-1.1v-0.9H163.8z"/>
					</g>
					<g>
						<path class="st3" d="M167.1,145.8v0.9H166v2.9h-1v-2.9H164v-0.9H167.1z"/>
					</g>
					<g>
						<path class="st3" d="M167.2,147.7c0-0.3,0-0.5,0.1-0.7c0.1-0.2,0.2-0.4,0.4-0.6c0.2-0.2,0.4-0.3,0.6-0.4
							c0.3-0.1,0.5-0.2,0.9-0.2c0.3,0,0.6,0.1,0.9,0.2c0.3,0.1,0.5,0.2,0.6,0.4c0.2,0.2,0.3,0.4,0.4,0.6c0.1,0.2,0.1,0.5,0.1,0.7
							c0,0.3,0,0.5-0.1,0.7c-0.1,0.2-0.2,0.4-0.4,0.6c-0.2,0.2-0.4,0.3-0.6,0.4c-0.3,0.1-0.5,0.2-0.9,0.2c-0.3,0-0.6-0.1-0.9-0.2
							c-0.3-0.1-0.5-0.2-0.6-0.4c-0.2-0.2-0.3-0.4-0.4-0.6C167.3,148.2,167.2,148,167.2,147.7z M170.2,147.7c0-0.1,0-0.3-0.1-0.4
							c0-0.1-0.1-0.2-0.2-0.3c-0.1-0.1-0.2-0.2-0.3-0.2c-0.1-0.1-0.3-0.1-0.4-0.1c-0.2,0-0.3,0-0.4,0.1c-0.1,0.1-0.2,0.1-0.3,0.2
							c-0.1,0.1-0.1,0.2-0.2,0.3c0,0.1-0.1,0.3-0.1,0.4c0,0.2,0,0.3,0.1,0.4c0,0.1,0.1,0.2,0.2,0.3c0.1,0.1,0.2,0.2,0.3,0.2
							c0.1,0.1,0.3,0.1,0.4,0.1c0.2,0,0.3,0,0.4-0.1c0.1-0.1,0.2-0.1,0.3-0.2c0.1-0.1,0.1-0.2,0.2-0.3
							C170.2,148,170.2,147.9,170.2,147.7z"/>
					</g>
					<g>
						<path class="st3" d="M171.8,149.6v-3.8h0.9l1.5,2.2c0-0.1,0-0.2,0-0.3c0-0.1,0-0.2,0-0.3v-1.5h1v3.8h-0.9l-1.5-2.2
							c0,0.1,0,0.2,0,0.3c0,0.1,0,0.2,0,0.3v1.5H171.8z"/>
					</g>
				</g>
			</g>
		</g>
		<g>
			<g>
				<path d="M374.7,131.4c0-6.3-1.1-12.2-3.2-17.8v35.5C373.5,143.6,374.7,137.6,374.7,131.4z"/>
			</g>
			<g class="st10">
				<path class="st4" d="M374.7,131.4c0-6.3-1.1-12.2-3.2-17.8v35.5C373.5,143.6,374.7,137.6,374.7,131.4z"/>
			</g>
			<g class="st10">
				<path class="st4" d="M374.7,131.4c0-6.3-1.1-12.2-3.2-17.8v35.5C373.5,143.6,374.7,137.6,374.7,131.4z"/>
			</g>
			<g>
				<path class="st3" d="M356.9,99.4c-0.3,0-0.5,0-0.8-0.1l-17.1,21.1c0.2,0.6,0.4,1.3,0.4,1.9c0,3.2-2.6,5.8-5.8,5.8
					c-0.9,0-1.7-0.2-2.4-0.6l-15.1,10.1c0,0.2,0.1,0.4,0.1,0.6c0,3.2-2.6,5.8-5.8,5.8c-0.4,0-0.8-0.1-1.2-0.1l-16.3,19
					c0.1,0.3,0.1,0.6,0.1,1c0,2.1-1.1,4-2.8,5c4.2,3.8,9.1,6.9,14.5,9.2v-23.4h11.6v26.6c2.5,0.4,5.2,0.6,7.8,0.6
					c1.3,0,2.6-0.1,3.8-0.2v-42.6h11.6v40.4c4.1-1.3,8-3.2,11.6-5.4v-63.7h11.6v53.5c3.7-4.4,6.7-9.4,8.8-14.9v-35.5
					c-2.3-6.1-5.7-11.7-10-16.4C360.4,98.6,358.7,99.4,356.9,99.4z"/>
			</g>
			<g class="st10">
				<path class="st4" d="M356.9,99.4c-0.3,0-0.5,0-0.8-0.1l-17.1,21.1c0.2,0.6,0.4,1.3,0.4,1.9c0,3.2-2.6,5.8-5.8,5.8
					c-0.9,0-1.7-0.2-2.4-0.6l-15.1,10.1c0,0.2,0.1,0.4,0.1,0.6c0,3.2-2.6,5.8-5.8,5.8c-0.4,0-0.8-0.1-1.2-0.1l-16.3,19
					c0.1,0.3,0.1,0.6,0.1,1c0,2.1-1.1,4-2.8,5c4.2,3.8,9.1,6.9,14.5,9.2v-23.4h11.6v26.6c2.5,0.4,5.2,0.6,7.8,0.6
					c1.3,0,2.6-0.1,3.8-0.2v-42.6h11.6v40.4c4.1-1.3,8-3.2,11.6-5.4v-63.7h11.6v53.5c3.7-4.4,6.7-9.4,8.8-14.9v-35.5
					c-2.3-6.1-5.7-11.7-10-16.4C360.4,98.6,358.7,99.4,356.9,99.4z"/>
			</g>
			<g class="st10">
				<path class="st4" d="M356.9,99.4c-0.3,0-0.5,0-0.8-0.1l-17.1,21.1c0.2,0.6,0.4,1.3,0.4,1.9c0,3.2-2.6,5.8-5.8,5.8
					c-0.9,0-1.7-0.2-2.4-0.6l-15.1,10.1c0,0.2,0.1,0.4,0.1,0.6c0,3.2-2.6,5.8-5.8,5.8c-0.4,0-0.8-0.1-1.2-0.1l-16.3,19
					c0.1,0.3,0.1,0.6,0.1,1c0,2.1-1.1,4-2.8,5c4.2,3.8,9.1,6.9,14.5,9.2v-23.4h11.6v26.6c2.5,0.4,5.2,0.6,7.8,0.6
					c1.3,0,2.6-0.1,3.8-0.2v-42.6h11.6v40.4c4.1-1.3,8-3.2,11.6-5.4v-63.7h11.6v53.5c3.7-4.4,6.7-9.4,8.8-14.9v-35.5
					c-2.3-6.1-5.7-11.7-10-16.4C360.4,98.6,358.7,99.4,356.9,99.4z"/>
			</g>
			<g>
				<path class="st3" d="M287,158.2c0.6,0,1.1,0.1,1.7,0.3l16-18.7c-0.1-0.5-0.2-1-0.2-1.5c0-3.2,2.6-5.8,5.8-5.8
					c0.7,0,1.4,0.1,2.1,0.4l15.4-10.3c0-0.1,0-0.2,0-0.2c0-3.2,2.6-5.8,5.8-5.8c0.3,0,0.5,0,0.8,0.1l17.1-21.1
					c-0.2-0.6-0.4-1.3-0.4-1.9c0-1.6,0.6-3,1.6-4c-8.2-5.6-18.1-8.9-28.7-8.9c-28,0-50.7,22.7-50.7,50.7c0,10.1,3,19.6,8.1,27.5
					l1.8,0.9C284.2,158.8,285.5,158.2,287,158.2z"/>
			</g>
			<g class="st10">
				<path class="st4" d="M287,158.2c0.6,0,1.1,0.1,1.7,0.3l16-18.7c-0.1-0.5-0.2-1-0.2-1.5c0-3.2,2.6-5.8,5.8-5.8
					c0.7,0,1.4,0.1,2.1,0.4l15.4-10.3c0-0.1,0-0.2,0-0.2c0-3.2,2.6-5.8,5.8-5.8c0.3,0,0.5,0,0.8,0.1l17.1-21.1
					c-0.2-0.6-0.4-1.3-0.4-1.9c0-1.6,0.6-3,1.6-4c-8.2-5.6-18.1-8.9-28.7-8.9c-28,0-50.7,22.7-50.7,50.7c0,10.1,3,19.6,8.1,27.5
					l1.8,0.9C284.2,158.8,285.5,158.2,287,158.2z"/>
			</g>
			<g class="st10">
				<path class="st4" d="M287,158.2c0.6,0,1.1,0.1,1.7,0.3l16-18.7c-0.1-0.5-0.2-1-0.2-1.5c0-3.2,2.6-5.8,5.8-5.8
					c0.7,0,1.4,0.1,2.1,0.4l15.4-10.3c0-0.1,0-0.2,0-0.2c0-3.2,2.6-5.8,5.8-5.8c0.3,0,0.5,0,0.8,0.1l17.1-21.1
					c-0.2-0.6-0.4-1.3-0.4-1.9c0-1.6,0.6-3,1.6-4c-8.2-5.6-18.1-8.9-28.7-8.9c-28,0-50.7,22.7-50.7,50.7c0,10.1,3,19.6,8.1,27.5
					l1.8,0.9C284.2,158.8,285.5,158.2,287,158.2z"/>
			</g>
			<g>
				<path class="st5" d="M304.5,154.8v23.4c3.7,1.5,7.6,2.6,11.6,3.3v-26.6H304.5z"/>
			</g>
			<g>
				<path class="st5" d="M327.8,139.3v42.6c4-0.3,7.9-1.1,11.6-2.3v-40.4H327.8z"/>
			</g>
			<g>
				<path class="st5" d="M351.1,110.5v63.7c4.4-2.8,8.3-6.2,11.6-10.2v-53.5H351.1z"/>
			</g>
			<g>
				<path class="st6" d="M351.4,95.6l-17.1,21.1c2.2,0.3,4,1.8,4.7,3.8l17.1-21.1C353.9,99.1,352.1,97.6,351.4,95.6z"/>
			</g>
			<g class="st10">
				<path class="st4" d="M351.4,95.6l-17.1,21.1c2.2,0.3,4,1.8,4.7,3.8l17.1-21.1C353.9,99.1,352.1,97.6,351.4,95.6z"/>
			</g>
			<g class="st10">
				<path class="st4" d="M351.4,95.6l-17.1,21.1c2.2,0.3,4,1.8,4.7,3.8l17.1-21.1C353.9,99.1,352.1,97.6,351.4,95.6z"/>
			</g>
			<g>
				<path class="st6" d="M283.1,159.8l-1.8-0.9c0.4,0.5,0.7,1.1,1.1,1.6C282.7,160.2,282.9,160,283.1,159.8z"/>
			</g>
			<g class="st10">
				<path class="st4" d="M283.1,159.8l-1.8-0.9c0.4,0.5,0.7,1.1,1.1,1.6C282.7,160.2,282.9,160,283.1,159.8z"/>
			</g>
			<g class="st10">
				<path class="st4" d="M283.1,159.8l-1.8-0.9c0.4,0.5,0.7,1.1,1.1,1.6C282.7,160.2,282.9,160,283.1,159.8z"/>
			</g>
			<g>
				<path class="st6" d="M327.8,122.6l-15.4,10.3c2,0.8,3.5,2.6,3.7,4.8l15.1-10.1C329.2,126.8,327.9,124.9,327.8,122.6z"/>
			</g>
			<g class="st10">
				<path class="st4" d="M327.8,122.6l-15.4,10.3c2,0.8,3.5,2.6,3.7,4.8l15.1-10.1C329.2,126.8,327.9,124.9,327.8,122.6z"/>
			</g>
			<g class="st10">
				<path class="st4" d="M327.8,122.6l-15.4,10.3c2,0.8,3.5,2.6,3.7,4.8l15.1-10.1C329.2,126.8,327.9,124.9,327.8,122.6z"/>
			</g>
			<g>
				<path class="st6" d="M304.7,139.8l-16,18.7c2.1,0.6,3.7,2.4,4.1,4.6l16.3-19C306.9,143.6,305.3,141.9,304.7,139.8z"/>
			</g>
			<g class="st10">
				<path class="st4" d="M304.7,139.8l-16,18.7c2.1,0.6,3.7,2.4,4.1,4.6l16.3-19C306.9,143.6,305.3,141.9,304.7,139.8z"/>
			</g>
			<g class="st10">
				<path class="st4" d="M304.7,139.8l-16,18.7c2.1,0.6,3.7,2.4,4.1,4.6l16.3-19C306.9,143.6,305.3,141.9,304.7,139.8z"/>
			</g>
			<g>
				<path class="st7" d="M292.9,164c0-0.3,0-0.7-0.1-1l-4.1,4.7c0.4,0.4,0.9,0.8,1.3,1.2C291.7,168,292.9,166.2,292.9,164z"/>
			</g>
			<g class="st10">
				<path class="st4" d="M292.9,164c0-0.3,0-0.7-0.1-1l-4.1,4.7c0.4,0.4,0.9,0.8,1.3,1.2C291.7,168,292.9,166.2,292.9,164z"/>
			</g>
			<g class="st10">
				<path class="st4" d="M292.9,164c0-0.3,0-0.7-0.1-1l-4.1,4.7c0.4,0.4,0.9,0.8,1.3,1.2C291.7,168,292.9,166.2,292.9,164z"/>
			</g>
			<g>
				<path class="st7" d="M288.7,158.5c-0.5-0.2-1.1-0.3-1.7-0.3c-1.5,0-2.9,0.6-3.9,1.5l3.1,1.6L288.7,158.5z"/>
			</g>
			<g class="st10">
				<path class="st4" d="M288.7,158.5c-0.5-0.2-1.1-0.3-1.7-0.3c-1.5,0-2.9,0.6-3.9,1.5l3.1,1.6L288.7,158.5z"/>
			</g>
			<g class="st10">
				<path class="st4" d="M288.7,158.5c-0.5-0.2-1.1-0.3-1.7-0.3c-1.5,0-2.9,0.6-3.9,1.5l3.1,1.6L288.7,158.5z"/>
			</g>
			<g>
				<path class="st7" d="M288.7,158.5l-2.4,2.8l-3.1-1.6c-0.2,0.2-0.5,0.5-0.7,0.7c1.8,2.6,3.9,5.1,6.2,7.3l4.1-4.7
					C292.4,160.9,290.8,159.1,288.7,158.5z"/>
			</g>
			<g class="st10">
				<path class="st4" d="M288.7,158.5l-2.4,2.8l-3.1-1.6c-0.2,0.2-0.5,0.5-0.7,0.7c1.8,2.6,3.9,5.1,6.2,7.3l4.1-4.7
					C292.4,160.9,290.8,159.1,288.7,158.5z"/>
			</g>
			<g class="st10">
				<path class="st4" d="M288.7,158.5l-2.4,2.8l-3.1-1.6c-0.2,0.2-0.5,0.5-0.7,0.7c1.8,2.6,3.9,5.1,6.2,7.3l4.1-4.7
					C292.4,160.9,290.8,159.1,288.7,158.5z"/>
			</g>
			<g>
				<path class="st7" d="M312.4,132.9c-0.6-0.2-1.3-0.4-2.1-0.4c-3.2,0-5.8,2.6-5.8,5.8c0,0.5,0.1,1,0.2,1.5l3.6-4.2L312.4,132.9z"
					/>
			</g>
			<g class="st10">
				<path class="st4" d="M312.4,132.9c-0.6-0.2-1.3-0.4-2.1-0.4c-3.2,0-5.8,2.6-5.8,5.8c0,0.5,0.1,1,0.2,1.5l3.6-4.2L312.4,132.9z"
					/>
			</g>
			<g class="st10">
				<path class="st4" d="M312.4,132.9c-0.6-0.2-1.3-0.4-2.1-0.4c-3.2,0-5.8,2.6-5.8,5.8c0,0.5,0.1,1,0.2,1.5l3.6-4.2L312.4,132.9z"
					/>
			</g>
			<g>
				<path class="st7" d="M309.1,144c0.4,0.1,0.8,0.1,1.2,0.1c3.2,0,5.8-2.6,5.8-5.8c0-0.2,0-0.4-0.1-0.6l-3.7,2.5L309.1,144z"/>
			</g>
			<g class="st10">
				<path class="st4" d="M309.1,144c0.4,0.1,0.8,0.1,1.2,0.1c3.2,0,5.8-2.6,5.8-5.8c0-0.2,0-0.4-0.1-0.6l-3.7,2.5L309.1,144z"/>
			</g>
			<g class="st10">
				<path class="st4" d="M309.1,144c0.4,0.1,0.8,0.1,1.2,0.1c3.2,0,5.8-2.6,5.8-5.8c0-0.2,0-0.4-0.1-0.6l-3.7,2.5L309.1,144z"/>
			</g>
			<g>
				<path class="st7" d="M312.4,132.9l-4.1,2.7l-3.6,4.2c0.6,2.1,2.2,3.7,4.4,4.2l3.3-3.8l3.7-2.5
					C315.8,135.5,314.4,133.7,312.4,132.9z"/>
			</g>
			<g class="st10">
				<path class="st4" d="M312.4,132.9l-4.1,2.7l-3.6,4.2c0.6,2.1,2.2,3.7,4.4,4.2l3.3-3.8l3.7-2.5
					C315.8,135.5,314.4,133.7,312.4,132.9z"/>
			</g>
			<g class="st10">
				<path class="st4" d="M312.4,132.9l-4.1,2.7l-3.6,4.2c0.6,2.1,2.2,3.7,4.4,4.2l3.3-3.8l3.7-2.5
					C315.8,135.5,314.4,133.7,312.4,132.9z"/>
			</g>
			<g>
				<path class="st7" d="M331.2,127.7c0.7,0.3,1.6,0.6,2.4,0.6c3.2,0,5.8-2.6,5.8-5.8c0-0.7-0.1-1.3-0.4-1.9l-3.4,4.2L331.2,127.7z"
					/>
			</g>
			<g class="st10">
				<path class="st4" d="M331.2,127.7c0.7,0.3,1.6,0.6,2.4,0.6c3.2,0,5.8-2.6,5.8-5.8c0-0.7-0.1-1.3-0.4-1.9l-3.4,4.2L331.2,127.7z"
					/>
			</g>
			<g class="st10">
				<path class="st4" d="M331.2,127.7c0.7,0.3,1.6,0.6,2.4,0.6c3.2,0,5.8-2.6,5.8-5.8c0-0.7-0.1-1.3-0.4-1.9l-3.4,4.2L331.2,127.7z"
					/>
			</g>
			<g>
				<path class="st7" d="M334.4,116.6c-0.3,0-0.5-0.1-0.8-0.1c-3.2,0-5.8,2.6-5.8,5.8c0,0.1,0,0.2,0,0.2l3.7-2.5L334.4,116.6z"/>
			</g>
			<g class="st10">
				<path class="st4" d="M334.4,116.6c-0.3,0-0.5-0.1-0.8-0.1c-3.2,0-5.8,2.6-5.8,5.8c0,0.1,0,0.2,0,0.2l3.7-2.5L334.4,116.6z"/>
			</g>
			<g class="st10">
				<path class="st4" d="M334.4,116.6c-0.3,0-0.5-0.1-0.8-0.1c-3.2,0-5.8,2.6-5.8,5.8c0,0.1,0,0.2,0,0.2l3.7-2.5L334.4,116.6z"/>
			</g>
			<g>
				<path class="st7" d="M334.4,116.6l-2.8,3.5l-3.7,2.5c0.1,2.2,1.4,4.1,3.4,5l4.5-3l3.4-4.2C338.4,118.4,336.6,116.9,334.4,116.6z
					"/>
			</g>
			<g class="st10">
				<path class="st4" d="M334.4,116.6l-2.8,3.5l-3.7,2.5c0.1,2.2,1.4,4.1,3.4,5l4.5-3l3.4-4.2C338.4,118.4,336.6,116.9,334.4,116.6z
					"/>
			</g>
			<g class="st10">
				<path class="st4" d="M334.4,116.6l-2.8,3.5l-3.7,2.5c0.1,2.2,1.4,4.1,3.4,5l4.5-3l3.4-4.2C338.4,118.4,336.6,116.9,334.4,116.6z
					"/>
			</g>
			<g>
				<path class="st7" d="M351.4,95.6l3.1-3.8l4.7,3.8l-3.1,3.8c0.3,0,0.5,0.1,0.8,0.1c1.9,0,3.5-0.9,4.6-2.2
					c-2.6-2.9-5.6-5.4-8.8-7.6c-1,1-1.6,2.5-1.6,4C351.1,94.3,351.2,95,351.4,95.6z"/>
			</g>
			<g class="st10">
				<path class="st4" d="M351.4,95.6l3.1-3.8l4.7,3.8l-3.1,3.8c0.3,0,0.5,0.1,0.8,0.1c1.9,0,3.5-0.9,4.6-2.2
					c-2.6-2.9-5.6-5.4-8.8-7.6c-1,1-1.6,2.5-1.6,4C351.1,94.3,351.2,95,351.4,95.6z"/>
			</g>
			<g class="st10">
				<path class="st4" d="M351.4,95.6l3.1-3.8l4.7,3.8l-3.1,3.8c0.3,0,0.5,0.1,0.8,0.1c1.9,0,3.5-0.9,4.6-2.2
					c-2.6-2.9-5.6-5.4-8.8-7.6c-1,1-1.6,2.5-1.6,4C351.1,94.3,351.2,95,351.4,95.6z"/>
			</g>
			<g>
				<path class="st7" d="M354.5,91.7l-3.1,3.8c0.7,2,2.5,3.5,4.7,3.8l3.1-3.8L354.5,91.7z"/>
			</g>
			<g class="st10">
				<path class="st4" d="M354.5,91.7l-3.1,3.8c0.7,2,2.5,3.5,4.7,3.8l3.1-3.8L354.5,91.7z"/>
			</g>
			<g class="st10">
				<path class="st4" d="M354.5,91.7l-3.1,3.8c0.7,2,2.5,3.5,4.7,3.8l3.1-3.8L354.5,91.7z"/>
			</g>
		</g>
		<g>
			<g class="st11">
				<path class="st4" d="M374.8,131.5c0-28-22.7-50.7-50.7-50.7c-28,0-50.7,22.7-50.7,50.7c0,28,22.7,50.7,50.7,50.7
					C352.1,182.2,374.8,159.5,374.8,131.5z"/>
			</g>
			<g>
				<g>
					<g>
						<path class="st12" d="M356.4,85.9c-25.1-17.8-59.9-11.8-77.7,13.4c-17.8,25.1-11.8,59.9,13.4,77.7
							c23.6,16.6,55.6,12.4,74.1-8.9l23.8,16.8l6.6-9.3l-23.8-16.8C386.7,134.1,380,102.5,356.4,85.9z M357.9,155.1
							c-13.2,18.6-39,23.1-57.6,9.9c-18.6-13.2-23.1-39-9.9-57.6c13.2-18.6,39-23.1,57.6-9.9C366.6,110.7,371,136.5,357.9,155.1z"/>
					</g>
					<g>
						<g>
							<path d="M357.3,84.3c-18-12.4-41-13.7-60.3-3.7c-19.5,10.1-31,31.4-30.4,53c0.6,22,14.7,41.7,34.6,50.6
								c20.4,9.1,44.4,4.7,61.2-9.8c1.8-1.6,3.5-3.3,5.1-5.1c-0.8,0.1-1.5,0.2-2.3,0.3c7.9,5.6,15.9,11.2,23.8,16.8
								c0.9,0.6,2,0.1,2.6-0.7c2.2-3.1,4.4-6.2,6.6-9.3c0.6-0.9,0.1-2-0.7-2.6c-7.9-5.6-15.9-11.2-23.8-16.8
								c0.2,0.9,0.4,1.7,0.7,2.6C388.6,133.7,381.2,101.6,357.3,84.3c-2-1.4-3.8,1.8-1.9,3.2c22.2,16.1,28.9,46.3,15.7,70.3
								c-0.5,1-0.2,2,0.7,2.6c7.9,5.6,15.9,11.2,23.8,16.8c-0.2-0.9-0.4-1.7-0.7-2.6c-2.2,3.1-4.4,6.2-6.6,9.3
								c0.9-0.2,1.7-0.4,2.6-0.7c-7.9-5.6-15.9-11.2-23.8-16.8c-0.7-0.5-1.8-0.3-2.3,0.3c-14.3,16-36.2,22.2-56.8,16.1
								c-20.7-6.2-35.4-25.3-37.5-46.5c-2.1-21,9.1-41.3,27.2-51.8c18-10.5,40.7-8.6,57.7,3C357.4,88.9,359.3,85.6,357.3,84.3z"/>
						</g>
						<g>
							<path d="M356.2,154.2c-12.9,17.6-37.1,21.5-55,9.2c-18-12.3-21.1-37.6-9.2-55c12.3-18,37.5-21.1,55-9.2
								C365.1,111.5,368.2,136.7,356.2,154.2c-1.4,2,1.9,3.9,3.2,1.9c12.4-18.2,9.5-42.5-6.9-57.2c-16.1-14.5-40.8-13.7-57.1,0.1
								c-16.8,14.2-18.9,39.7-6.7,57.4c12.4,17.9,36.7,22.8,55.7,13.1c6-3.1,11-7.9,14.9-13.3C360.9,154.1,357.7,152.3,356.2,154.2z
								"/>
						</g>
					</g>
				</g>
				<g>
					<g>
						
							<rect x="400.2" y="151.1" transform="matrix(0.5771 -0.8167 0.8167 0.5771 16.258 418.589)" class="st5" width="24.1" height="85"/>
					</g>
					<g>
						<g>
							<path d="M441.6,228.9c4.6-6.6,9.3-13.1,13.9-19.7c0.6-0.9,0.1-2-0.7-2.6c-23.1-16.3-46.3-32.7-69.4-49
								c-0.9-0.6-2-0.1-2.6,0.7c-4.6,6.6-9.3,13.1-13.9,19.7c-0.6,0.9-0.1,2,0.7,2.6c23.1,16.3,46.3,32.7,69.4,49
								c2,1.4,3.9-1.9,1.9-3.2c-23.1-16.3-46.3-32.7-69.4-49c0.2,0.9,0.4,1.7,0.7,2.6c4.6-6.6,9.3-13.1,13.9-19.7
								c-0.9,0.2-1.7,0.4-2.6,0.7c23.1,16.3,46.3,32.7,69.4,49c-0.2-0.9-0.4-1.7-0.7-2.6c-4.6,6.6-9.3,13.1-13.9,19.7
								C437,229,440.2,230.9,441.6,228.9z"/>
						</g>
					</g>
				</g>
			</g>
		</g>
	</g>
	<g class="st13">
		<g class="st14">
			<path class="st3" d="M86,21.4c-19.1,0-34.5,15.4-34.5,34.5S66.9,90.4,86,90.4c11.7,0,22.1-5.8,28.3-14.8L86,55.9V21.4z"/>
		</g>
		<g class="st14">
			<path class="st4" d="M93,16.6v34.5l28.3,19.7c3.9-5.6,6.2-12.4,6.2-19.7C127.5,32.1,112.1,16.6,93,16.6z"/>
		</g>
	</g>
	<g class="st13">
		<circle class="st15" cx="112.9" cy="40" r="2"/>
		<path class="st15" d="M140,20.2c-1.1,0-2,0.9-2,2c0,1.1,0.9,2,2,2c1.1,0,2-0.9,2-2C142,21.1,141.1,20.2,140,20.2z"/>
		<path class="st16" d="M140,19.2c-1.7,0-3,1.3-3,3c0,0.4,0.1,0.8,0.3,1.2l-22.1,14.5c-0.5-0.6-1.3-1-2.2-1c-1.7,0-3,1.3-3,3
			c0,1.7,1.3,3,3,3s3-1.3,3-3c0-0.4-0.1-0.8-0.3-1.2l22.1-14.5c0.5,0.6,1.3,1,2.2,1c1.7,0,3-1.3,3-3C143,20.5,141.6,19.2,140,19.2z
			 M140,24.2c-1.1,0-2-0.9-2-2c0-1.1,0.9-2,2-2c1.1,0,2,0.9,2,2C142,23.3,141.1,24.2,140,24.2z M114.9,40c0,1.1-0.9,2-2,2
			c-1.1,0-2-0.9-2-2c0-1.1,0.9-2,2-2C114,38,114.9,38.9,114.9,40z"/>
	</g>
	<g class="st13">
		<circle class="st15" cx="41" cy="91.6" r="2"/>
		<circle class="st15" cx="68" cy="73.8" r="2"/>
		<path class="st16" d="M68,70.8c-1.7,0-3,1.3-3,3c0,0.4,0.1,0.8,0.3,1.2L43.2,89.5c-0.5-0.6-1.3-1-2.2-1c-1.7,0-3,1.3-3,3
			c0,1.7,1.3,3,3,3c1.7,0,3-1.3,3-3c0-0.4-0.1-0.8-0.3-1.2l22.1-14.5c0.5,0.6,1.3,1,2.2,1c1.7,0,3-1.3,3-3S69.7,70.8,68,70.8z
			 M68,75.8c-1.1,0-2-0.9-2-2c0-1.1,0.9-2,2-2c1.1,0,2,0.9,2,2C70,74.9,69.1,75.8,68,75.8z M43,91.6c0,1.1-0.9,2-2,2
			c-1.1,0-2-0.9-2-2c0-1.1,0.9-2,2-2C42.1,89.6,43,90.5,43,91.6z"/>
	</g>
	<g class="st13">
		<path class="st16" d="M145.8,19.6c0-0.4,0.1-0.8,0.3-1.1s0.4-0.6,0.7-0.8c0.3-0.2,0.6-0.4,1-0.5c0.4-0.1,0.8-0.1,1.2-0.1
			c0.5,0,1,0.1,1.5,0.2c0.5,0.1,0.9,0.3,1.3,0.5v2c-0.4-0.3-0.8-0.5-1.2-0.6c-0.5-0.1-0.9-0.2-1.4-0.2c-0.4,0-0.7,0.1-0.8,0.2
			c-0.2,0.1-0.2,0.2-0.2,0.4c0,0.2,0.1,0.3,0.3,0.5c0.2,0.1,0.5,0.2,0.8,0.3c0.3,0.1,0.7,0.2,1.1,0.4c0.4,0.1,0.7,0.3,1,0.5
			c0.3,0.2,0.6,0.5,0.8,0.8c0.2,0.3,0.3,0.7,0.3,1.2c0,0.5-0.1,0.9-0.3,1.2c-0.2,0.3-0.4,0.6-0.7,0.8c-0.3,0.2-0.7,0.3-1.1,0.4
			c-0.4,0.1-0.8,0.1-1.3,0.1c-0.6,0-1.2-0.1-1.7-0.2c-0.5-0.1-1-0.3-1.5-0.6V23c0.5,0.3,1,0.6,1.5,0.7c0.5,0.1,1,0.2,1.5,0.2
			c0.4,0,0.8,0,1-0.1c0.2-0.1,0.3-0.2,0.3-0.4c0-0.2-0.1-0.4-0.3-0.5c-0.2-0.1-0.5-0.3-0.8-0.4c-0.3-0.1-0.7-0.2-1.1-0.4
			c-0.4-0.1-0.7-0.3-1-0.5c-0.3-0.2-0.6-0.5-0.8-0.8C145.9,20.5,145.8,20.1,145.8,19.6z"/>
		<path class="st16" d="M159.7,17.3v2h-2.4v6.4h-2.2v-6.4h-2.4v-2H159.7z"/>
		<path class="st16" d="M158.9,25.7l3.3-8.4h2.4l3.3,8.4h-2.3l-0.5-1.3h-3.5l-0.5,1.3H158.9z M162.3,22.6h2.2l-0.9-2.4
			c0-0.1-0.1-0.2-0.1-0.3c0-0.1-0.1-0.3-0.1-0.5c0,0.2-0.1,0.4-0.1,0.5c0,0.1-0.1,0.2-0.1,0.3L162.3,22.6z"/>
		<path class="st16" d="M174,17.3v2h-2.4v6.4h-2.2v-6.4h-2.4v-2H174z"/>
		<path class="st16" d="M177.2,17.3v8.4H175v-8.4H177.2z"/>
		<path class="st16" d="M178.5,19.6c0-0.4,0.1-0.8,0.3-1.1c0.2-0.3,0.4-0.6,0.7-0.8c0.3-0.2,0.6-0.4,1-0.5c0.4-0.1,0.8-0.1,1.2-0.1
			c0.5,0,1,0.1,1.5,0.2c0.5,0.1,0.9,0.3,1.3,0.5v2c-0.4-0.3-0.8-0.5-1.2-0.6c-0.5-0.1-0.9-0.2-1.4-0.2c-0.4,0-0.7,0.1-0.8,0.2
			c-0.2,0.1-0.2,0.2-0.2,0.4c0,0.2,0.1,0.3,0.3,0.5c0.2,0.1,0.5,0.2,0.8,0.3c0.3,0.1,0.7,0.2,1.1,0.4c0.4,0.1,0.7,0.3,1,0.5
			c0.3,0.2,0.6,0.5,0.8,0.8c0.2,0.3,0.3,0.7,0.3,1.2c0,0.5-0.1,0.9-0.3,1.2c-0.2,0.3-0.4,0.6-0.7,0.8c-0.3,0.2-0.7,0.3-1.1,0.4
			c-0.4,0.1-0.8,0.1-1.3,0.1c-0.6,0-1.2-0.1-1.7-0.2c-0.5-0.1-1-0.3-1.5-0.6V23c0.5,0.3,1,0.6,1.5,0.7c0.5,0.1,1,0.2,1.5,0.2
			c0.4,0,0.8,0,1-0.1c0.2-0.1,0.3-0.2,0.3-0.4c0-0.2-0.1-0.4-0.3-0.5c-0.2-0.1-0.5-0.3-0.8-0.4c-0.3-0.1-0.7-0.2-1.1-0.4
			c-0.4-0.1-0.7-0.3-1-0.5c-0.3-0.2-0.6-0.5-0.8-0.8C178.6,20.5,178.5,20.1,178.5,19.6z"/>
		<path class="st16" d="M192.4,17.3v2H190v6.4h-2.2v-6.4h-2.4v-2H192.4z"/>
		<path class="st16" d="M195.6,17.3v8.4h-2.2v-8.4H195.6z"/>
		<path class="st16" d="M196.7,21.6c0-0.8,0.1-1.5,0.4-2c0.3-0.6,0.6-1,1-1.4c0.4-0.4,0.9-0.6,1.5-0.8c0.5-0.2,1.1-0.3,1.7-0.3
			c0.4,0,0.9,0,1.3,0.1c0.4,0.1,0.8,0.2,1.2,0.4v2.1c-0.3-0.2-0.6-0.4-0.9-0.5c-0.4-0.1-0.7-0.2-1.1-0.2c-0.3,0-0.7,0-1,0.1
			c-0.3,0.1-0.6,0.2-0.8,0.5c-0.2,0.2-0.4,0.5-0.6,0.8c-0.2,0.3-0.2,0.7-0.2,1.2c0,0.4,0.1,0.8,0.2,1.1c0.2,0.3,0.3,0.5,0.6,0.7
			c0.2,0.2,0.5,0.3,0.8,0.4c0.3,0.1,0.6,0.1,1,0.1c0.4,0,0.8-0.1,1.2-0.2c0.4-0.1,0.7-0.3,0.9-0.5v2.2c-0.7,0.4-1.6,0.5-2.4,0.5
			c-0.6,0-1.1-0.1-1.7-0.2c-0.6-0.2-1-0.4-1.5-0.8c-0.4-0.3-0.8-0.8-1-1.3C196.9,23,196.7,22.4,196.7,21.6z"/>
		<path class="st16" d="M204.7,19.6c0-0.4,0.1-0.8,0.3-1.1c0.2-0.3,0.4-0.6,0.7-0.8c0.3-0.2,0.6-0.4,1-0.5c0.4-0.1,0.8-0.1,1.2-0.1
			c0.5,0,1,0.1,1.5,0.2c0.5,0.1,0.9,0.3,1.3,0.5v2c-0.4-0.3-0.8-0.5-1.2-0.6c-0.5-0.1-0.9-0.2-1.4-0.2c-0.4,0-0.7,0.1-0.8,0.2
			c-0.2,0.1-0.2,0.2-0.2,0.4c0,0.2,0.1,0.3,0.3,0.5c0.2,0.1,0.5,0.2,0.8,0.3c0.3,0.1,0.7,0.2,1.1,0.4c0.4,0.1,0.7,0.3,1,0.5
			c0.3,0.2,0.6,0.5,0.8,0.8c0.2,0.3,0.3,0.7,0.3,1.2c0,0.5-0.1,0.9-0.3,1.2c-0.2,0.3-0.4,0.6-0.7,0.8c-0.3,0.2-0.7,0.3-1.1,0.4
			c-0.4,0.1-0.8,0.1-1.3,0.1c-0.6,0-1.2-0.1-1.7-0.2c-0.5-0.1-1-0.3-1.5-0.6V23c0.5,0.3,1,0.6,1.5,0.7c0.5,0.1,1,0.2,1.5,0.2
			c0.4,0,0.8,0,1-0.1c0.2-0.1,0.3-0.2,0.3-0.4c0-0.2-0.1-0.4-0.3-0.5c-0.2-0.1-0.5-0.3-0.8-0.4c-0.3-0.1-0.7-0.2-1.1-0.4
			c-0.4-0.1-0.7-0.3-1-0.5c-0.3-0.2-0.6-0.5-0.8-0.8C204.8,20.5,204.7,20.1,204.7,19.6z"/>
	</g>
	<g class="st13">
		<path class="st16" d="M14.1,97.1c0.5,0,1,0,1.4,0.1c0.4,0.1,0.8,0.3,1.2,0.5c0.3,0.2,0.6,0.5,0.8,0.9c0.2,0.4,0.3,0.8,0.3,1.4
			c0,0.6-0.1,1-0.3,1.4c-0.2,0.4-0.4,0.7-0.8,0.9c-0.3,0.2-0.7,0.4-1.2,0.5c-0.4,0.1-0.9,0.1-1.4,0.1H13v2.6h-2.2v-8.4H14.1z
			 M15.5,100c0-0.2,0-0.4-0.1-0.5c-0.1-0.1-0.2-0.2-0.3-0.3c-0.1-0.1-0.3-0.1-0.4-0.1c-0.2,0-0.3,0-0.5,0H13v1.9h1.2
			c0.2,0,0.3,0,0.5,0c0.2,0,0.3-0.1,0.4-0.1c0.1-0.1,0.2-0.2,0.3-0.3C15.5,100.4,15.5,100.2,15.5,100z"/>
		<path class="st16" d="M24.9,97.1v1.9H21v1.3h3.5v1.9H21v1.4h3.9v1.9h-6.1v-8.4H24.9z"/>
		<path class="st16" d="M26.2,105.5v-8.4h3.5c0.4,0,0.8,0,1.3,0.1c0.4,0.1,0.8,0.2,1.1,0.5c0.3,0.2,0.6,0.5,0.8,0.9
			c0.2,0.4,0.3,0.8,0.3,1.4c0,0.4,0,0.7-0.1,0.9c-0.1,0.3-0.2,0.5-0.3,0.7c-0.1,0.2-0.3,0.4-0.5,0.5c-0.2,0.1-0.4,0.3-0.6,0.4l2.3,3
			h-2.5l-2-2.7h-1v2.7H26.2z M28.4,101h1.4c0.3,0,0.6-0.1,0.8-0.2c0.2-0.2,0.3-0.4,0.3-0.7c0-0.3-0.1-0.6-0.3-0.7
			c-0.2-0.2-0.5-0.2-0.8-0.2h-1.4V101z"/>
		<path class="st16" d="M34.2,101.5c0-0.8,0.1-1.5,0.4-2c0.3-0.6,0.6-1,1-1.4c0.4-0.4,0.9-0.6,1.5-0.8c0.5-0.2,1.1-0.3,1.7-0.3
			c0.4,0,0.9,0,1.3,0.1c0.4,0.1,0.8,0.2,1.2,0.4v2.1c-0.3-0.2-0.6-0.4-0.9-0.5c-0.4-0.1-0.7-0.2-1.1-0.2c-0.3,0-0.7,0-1,0.1
			c-0.3,0.1-0.6,0.2-0.8,0.5c-0.2,0.2-0.4,0.5-0.6,0.8c-0.2,0.3-0.2,0.7-0.2,1.2c0,0.4,0.1,0.8,0.2,1.1c0.2,0.3,0.3,0.5,0.6,0.7
			c0.2,0.2,0.5,0.3,0.8,0.4c0.3,0.1,0.6,0.1,1,0.1c0.4,0,0.8-0.1,1.2-0.2s0.7-0.3,0.9-0.5v2.2c-0.7,0.4-1.6,0.5-2.4,0.5
			c-0.6,0-1.1-0.1-1.7-0.2c-0.6-0.2-1-0.4-1.5-0.8c-0.4-0.3-0.8-0.8-1-1.3C34.3,102.9,34.2,102.2,34.2,101.5z"/>
		<path class="st16" d="M48.5,97.1v1.9h-3.8v1.3h3.5v1.9h-3.5v1.4h3.9v1.9h-6.1v-8.4H48.5z"/>
		<path class="st16" d="M49.9,105.5v-8.4H52l3.3,4.8c0-0.2,0-0.4,0-0.7c0-0.2,0-0.5,0-0.7v-3.4h2.2v8.4h-2.1l-3.3-4.8
			c0,0.2,0,0.4,0,0.7c0,0.2,0,0.5,0,0.7v3.4H49.9z"/>
		<path class="st16" d="M65.3,97.1v2H63v6.4h-2.2v-6.4h-2.4v-2H65.3z"/>
		<path class="st16" d="M66,99.4c0-0.4,0.1-0.8,0.3-1.1c0.2-0.3,0.4-0.6,0.7-0.8c0.3-0.2,0.6-0.4,1-0.5c0.4-0.1,0.8-0.1,1.2-0.1
			c0.5,0,1,0.1,1.5,0.2c0.5,0.1,0.9,0.3,1.3,0.5v2c-0.4-0.3-0.8-0.5-1.2-0.6c-0.5-0.1-0.9-0.2-1.4-0.2c-0.4,0-0.7,0.1-0.8,0.2
			c-0.2,0.1-0.2,0.2-0.2,0.4c0,0.2,0.1,0.3,0.3,0.5c0.2,0.1,0.5,0.2,0.8,0.3c0.3,0.1,0.7,0.2,1.1,0.4c0.4,0.1,0.7,0.3,1,0.5
			c0.3,0.2,0.6,0.5,0.8,0.8c0.2,0.3,0.3,0.7,0.3,1.2c0,0.5-0.1,0.9-0.3,1.2c-0.2,0.3-0.4,0.6-0.7,0.8c-0.3,0.2-0.7,0.3-1.1,0.4
			c-0.4,0.1-0.8,0.1-1.3,0.1c-0.6,0-1.2-0.1-1.7-0.2c-0.5-0.1-1-0.3-1.5-0.6v-2.1c0.5,0.3,1,0.6,1.5,0.7c0.5,0.1,1,0.2,1.5,0.2
			c0.4,0,0.8,0,1-0.1c0.2-0.1,0.3-0.2,0.3-0.4c0-0.2-0.1-0.4-0.3-0.5c-0.2-0.1-0.5-0.3-0.8-0.4c-0.3-0.1-0.7-0.2-1.1-0.4
			c-0.4-0.1-0.7-0.3-1-0.5c-0.3-0.2-0.6-0.5-0.8-0.8C66.1,100.3,66,99.9,66,99.4z"/>
	</g>
	<g class="st13">
		<g class="st14">
			<g>
				<rect x="24.4" y="171.9" class="st3" width="11.8" height="47.9"/>
			</g>
			<g>
				<rect x="38.5" y="171.9" class="st3" width="11.8" height="47.9"/>
			</g>
			<g>
				<rect x="52.4" y="171.9" class="st3" width="11.8" height="47.9"/>
			</g>
			<g>
				<rect x="66.5" y="171.9" class="st3" width="11.8" height="47.9"/>
			</g>
			<g>
				<rect x="80.7" y="171.9" class="st3" width="11.8" height="47.9"/>
			</g>
			<g>
				<rect x="94.8" y="171.9" class="st3" width="11.8" height="47.9"/>
			</g>
		</g>
		<g class="st14">
			<rect x="24.4" y="198.7" class="st4" width="11.8" height="21.1"/>
		</g>
		<g class="st14">
			<rect x="38.5" y="187.4" class="st4" width="11.8" height="32.4"/>
		</g>
		<g class="st14">
			<rect x="52.4" y="193" class="st4" width="11.8" height="26.8"/>
		</g>
		<g class="st14">
			<rect x="66.5" y="179.4" class="st4" width="11.8" height="40.4"/>
		</g>
		<g class="st14">
			<rect x="80.7" y="203.6" class="st4" width="11.8" height="16.2"/>
		</g>
		<g class="st14">
			<rect x="94.8" y="183.4" class="st4" width="11.8" height="36.4"/>
		</g>
	</g>
	<g class="st13">
		<g>
			<g class="st14">
				<g>
					<path class="st4" d="M441.8,174.1c-18.5,0-33.6-15.1-33.6-33.6c0-18.5,15.1-33.6,33.6-33.6s33.6,15.1,33.6,33.6
						C475.5,159,460.4,174.1,441.8,174.1z M441.8,117c-13,0-23.5,10.6-23.5,23.5s10.6,23.5,23.5,23.5c13,0,23.5-10.6,23.5-23.5
						S454.8,117,441.8,117z"/>
				</g>
			</g>
			<g class="st14">
				<path class="st3" d="M441.8,106.9V117c13,0,23.5,10.6,23.5,23.5h10.1C475.5,122,460.4,106.9,441.8,106.9z"/>
			</g>
		</g>
		<g>
			<g>
				<path class="st4" d="M425.9,135.4c0-0.9,0.1-1.8,0.4-2.7c0.3-0.9,0.7-1.6,1.2-2.3c0.5-0.7,1.2-1.2,2-1.6
					c0.8-0.4,1.8-0.6,2.9-0.6c1.1,0,2.1,0.2,2.9,0.6c0.8,0.4,1.5,0.9,2,1.6c0.5,0.7,0.9,1.4,1.2,2.3c0.3,0.9,0.4,1.8,0.4,2.7
					c0,0.9-0.1,1.8-0.4,2.7c-0.3,0.9-0.7,1.6-1.2,2.3c-0.5,0.7-1.2,1.2-2,1.6c-0.8,0.4-1.8,0.6-2.9,0.6c-1.1,0-2.1-0.2-2.9-0.6
					c-0.8-0.4-1.5-0.9-2-1.6c-0.5-0.7-0.9-1.4-1.2-2.3C426,137.2,425.9,136.3,425.9,135.4z M434.2,135.4c0-1-0.1-1.9-0.4-2.5
					c-0.3-0.6-0.8-0.9-1.4-0.9s-1.1,0.3-1.4,0.9c-0.3,0.6-0.4,1.4-0.4,2.5c0,1,0.1,1.8,0.4,2.5c0.3,0.6,0.8,0.9,1.4,0.9
					s1.1-0.3,1.4-0.9C434,137.2,434.2,136.4,434.2,135.4z M437.5,152.3c-0.4,0.1-0.8,0.1-1.2,0.2c-0.4,0-0.9,0.1-1.3,0.1
					c-0.4,0-0.7,0-1.1,0c-0.4,0-0.9-0.1-1.5-0.2l13.9-23.8c0.4-0.1,0.8-0.1,1.2-0.2c0.4,0,0.9-0.1,1.3-0.1c0.4,0,0.7,0,1.1,0
					c0.4,0,0.9,0.1,1.5,0.2L437.5,152.3z M444.9,145.6c0-0.9,0.1-1.8,0.4-2.7c0.3-0.9,0.6-1.6,1.2-2.3c0.5-0.7,1.2-1.2,2-1.6
					c0.8-0.4,1.8-0.6,2.9-0.6c1.1,0,2.1,0.2,2.9,0.6c0.8,0.4,1.5,0.9,2,1.6c0.5,0.7,0.9,1.4,1.2,2.3c0.3,0.9,0.4,1.8,0.4,2.7
					c0,0.9-0.1,1.8-0.4,2.7c-0.3,0.9-0.7,1.6-1.2,2.3c-0.5,0.7-1.2,1.2-2,1.6c-0.8,0.4-1.8,0.6-2.9,0.6c-1.1,0-2.1-0.2-2.9-0.6
					c-0.8-0.4-1.5-0.9-2-1.6c-0.5-0.7-0.9-1.4-1.2-2.3C445,147.4,444.9,146.5,444.9,145.6z M453.2,145.6c0-1-0.1-1.9-0.4-2.5
					c-0.3-0.6-0.8-0.9-1.4-0.9c-0.7,0-1.1,0.3-1.4,0.9c-0.3,0.6-0.4,1.4-0.4,2.5c0,1,0.1,1.8,0.4,2.5c0.3,0.6,0.8,0.9,1.4,0.9
					c0.6,0,1.1-0.3,1.4-0.9C453.1,147.4,453.2,146.6,453.2,145.6z"/>
			</g>
		</g>
	</g>
	<g class="st13">
		<g class="st14">
			<g>
				<path class="st3" d="M264.5,59.6c0,1.4,1.1,2.5,2.5,2.5c27.2,0,54.4,0,81.6,0c0.7,0,1.3-0.3,1.7-0.7c0,0,0,0,0.1-0.1
					c0,0,0,0,0.1-0.1c0.4-0.4,0.7-1,0.7-1.7c0-11.2,0-22.5,0-33.7h-86.6C264.5,37.2,264.5,48.4,264.5,59.6z"/>
			</g>
			<g>
				<path class="st4" d="M348.6,15.9c-27.2,0-54.4,0-81.6,0c-1.4,0-2.5,1.1-2.5,2.5c0,2.5,0,5,0,7.6h86.6c0-2.5,0-5,0-7.6
					C351.1,17,349.9,15.9,348.6,15.9z"/>
			</g>
		</g>
		<g class="st14">
			<g>
				<path class="st4" d="M296.4,51.6c0,3.3-2.7,5.9-5.9,5.9h-15.1c-3.3,0-5.9-2.7-5.9-5.9V36.5c0-3.3,2.7-5.9,5.9-5.9h15.1
					c3.3,0,5.9,2.7,5.9,5.9V51.6z"/>
			</g>
			<g>
				<path class="st3" d="M289.5,37c-3.2,3.4-6.4,6.7-9.6,10.1c-1.2-1.6-2.4-3.1-3.6-4.7c-1.4-1.8-3.9,0.7-2.5,2.5
					c1.6,2,3.2,4.1,4.7,6.1c0.6,0.7,1.9,0.6,2.5,0c3.7-3.8,7.3-7.7,11-11.5C293.6,37.9,291.1,35.4,289.5,37z"/>
			</g>
		</g>
		<g class="st14">
			<g>
				<rect x="302.3" y="30.5" class="st4" width="42.1" height="3"/>
			</g>
			<g>
				<rect x="302.3" y="36.5" class="st4" width="37.6" height="3"/>
			</g>
			<g>
				<rect x="302.3" y="42.6" class="st4" width="40.5" height="3"/>
			</g>
			<g>
				<rect x="302.3" y="48.5" class="st4" width="32" height="3"/>
			</g>
			<g>
				<rect x="302.3" y="54.6" class="st4" width="16" height="3"/>
			</g>
		</g>
	</g>
	<g class="st13">
		<path class="st16" d="M396.1,97.9c-4.6,0-8.4,3.7-8.4,8.4c0,0.5,0.1,1.1,0.1,1.6c0.4,2.2,1.9,6.9,8.2,10.2c6.3-3.3,7.9-8,8.2-10.2
			c0.1-0.5,0.1-1,0.1-1.5C404.4,101.7,400.7,97.9,396.1,97.9z M396.1,112c-3.1,0-5.7-2.5-5.7-5.7s2.5-5.7,5.7-5.7s5.7,2.5,5.7,5.7
			S399.2,112,396.1,112z"/>
	</g>
	<g class="st13">
		<g class="st14">
			<path class="st4" d="M117,147.5c0-3.6-3.9-6.6-8.7-6.6c-4.8,0-8.7,3-8.7,6.6c0,3.6,3.9,6.6,8.7,6.6c0.8,0,1.6-0.1,2.3-0.2
				l5.7,2.6l-1.7-4.5C116.1,150.9,117,149.3,117,147.5z M108.3,153.4c-4.4,0-8-2.6-8-5.9c0-3.2,3.6-5.9,8-5.9c4.4,0,8,2.6,8,5.9
				C116.2,150.8,112.7,153.4,108.3,153.4z"/>
		</g>
		<g class="st14">
			<path class="st4" d="M110.6,154.4c-0.7,0.1-1.5,0.2-2.3,0.2c-4.9,0-8.8-2.9-9.2-6.6c-1.8,1.2-2.9,3-2.9,4.9
				c0,1.7,0.9,3.3,2.4,4.5l-1.7,4.5l5.7-2.6c0.7,0.2,1.5,0.2,2.3,0.2c3.6,0,6.7-1.7,8-4.1L110.6,154.4z"/>
		</g>
		<g class="st14">
			<g>
				<path class="st4" d="M104.5,147.6c0,0.6-0.5,1.1-1.1,1.1c-0.6,0-1.1-0.5-1.1-1.1c0-0.6,0.5-1.1,1.1-1.1
					C104,146.4,104.5,146.9,104.5,147.6z"/>
			</g>
			<g>
				<circle class="st4" cx="106.6" cy="147.6" r="1.1"/>
			</g>
			<g>
				<path class="st4" d="M114.4,147.6c0,0.6-0.5,1.1-1.1,1.1c-0.6,0-1.1-0.5-1.1-1.1c0-0.6,0.5-1.1,1.1-1.1
					C113.9,146.4,114.4,146.9,114.4,147.6z"/>
			</g>
			<g>
				<path class="st4" d="M111.1,147.6c0,0.6-0.5,1.1-1.1,1.1c-0.6,0-1.1-0.5-1.1-1.1c0-0.6,0.5-1.1,1.1-1.1
					C110.6,146.4,111.1,146.9,111.1,147.6z"/>
			</g>
		</g>
	</g>
	<g class="st13">
		<g class="st14">
			<path class="st4" d="M76.6,249.3l-4.8-4.8c1.1-2.6,0.6-5.7-1.4-7.9c-2.7-2.9-7.3-2.6-10,0c-2.9,2.7-2.6,7.3,0,10
				c2.1,2.2,5.2,2.5,7.8,1.4l4.8,4.8c0.9,0.9,2.3,0.9,3.1,0l0.5-0.5C77.5,251.6,77.5,250.2,76.6,249.3z M62.7,244.3
				c-1.5-1.4-1.4-3.9,0-5.3c1.4-1.5,3.9-1.4,5.3,0c1.5,1.4,1.4,3.9,0,5.3C66.5,245.8,64.2,245.8,62.7,244.3z"/>
		</g>
	</g>
	<g class="st13">
		<g class="st14">
			<g>
				<path class="st4" d="M238.7,32.9c0.4-0.1,0.8,0,1.1,0.3l0.8,0.8c0.3,0.3,0.4,0.7,0.3,1.1l1.1,1.1l3.9-3.9l-0.6-0.6
					c-2.2-2.2-5.7-2.2-7.9-0.2L238.7,32.9z"/>
			</g>
			<g>
				<path class="st4" d="M238.1,41.3l2.8,2.8c2.2,2.2,5.9,2.2,8.1,0l0.3-0.3c2.2-2.2,2.2-5.9,0-8.1l-2.8-2.8L238.1,41.3z"/>
			</g>
			<g>
				<path class="st4" d="M241.3,36.8l-1.1-1.1c-0.4,0.1-0.8,0-1.1-0.3l-0.8-0.8c-0.3-0.3-0.4-0.7-0.3-1.1l-1.4-1.4
					c-2.1,2.2-2,5.7,0.2,7.9l0.6,0.6L241.3,36.8z"/>
			</g>
		</g>
		<g class="st14">
			<g>
				<path class="st4" d="M236.8,30.5c-1-1-1.7-2.5-0.8-3.7c0.7-1,1.9-1.2,3-0.9c0.9,0.3,1.2,1.1,1.8,1.7c2,2.1,5.3,1,6.1-1.6
					c0.2-0.8-1-1.1-1.2-0.3c-0.5,1.8-2.5,2.3-3.9,1c-0.5-0.5-0.8-1.1-1.4-1.5c-0.7-0.5-1.7-0.7-2.6-0.7c-1.8,0.1-3.4,1.8-3.4,3.6
					c0,1.2,0.8,2.5,1.6,3.3C236.5,32,237.4,31.1,236.8,30.5L236.8,30.5z"/>
			</g>
		</g>
	</g>
	<g class="st13">
		<g class="st14">
			<path class="st4" d="M396.1,211.8l-1.8-0.8c-0.7-0.3-0.9-1.1-0.5-1.8l1-1.7c0.4-0.7,0.1-1-0.6-0.8l-1.9,0.5
				c-0.7,0.2-1.4-0.3-1.6-1l-0.3-2c-0.1-0.7-0.6-0.9-1-0.2l-1.1,1.6c-0.4,0.6-1.3,0.7-1.8,0.2l-1.5-1.3c-0.6-0.5-1-0.3-0.9,0.5
				l0.2,2c0.1,0.8-0.5,1.4-1.3,1.4l-2,0c-0.8,0-0.9,0.4-0.4,1l1.4,1.4c0.5,0.5,0.5,1.4-0.1,1.8l-1.6,1.3c-0.6,0.5-0.4,0.9,0.3,1
				l2,0.2c0.8,0.1,1.3,0.7,1.1,1.5l-0.4,2c-0.1,0.7,0.3,1,0.9,0.6l1.6-1.2c0.6-0.4,1.4-0.3,1.8,0.4l1,1.7c0.4,0.7,0.8,0.6,1-0.1
				l0.5-1.9c0.2-0.7,0.9-1.1,1.6-0.8l1.9,0.7c0.7,0.3,1-0.1,0.7-0.8l-0.8-1.8c-0.3-0.7,0-1.5,0.7-1.7l1.9-0.7
				C396.8,212.6,396.8,212.2,396.1,211.8z"/>
		</g>
		<g class="st14">
			<g>
				<path class="st4" d="M394,218.4c-0.2,0-0.3,0-0.5-0.1l-1.9-0.7c-0.1,0-0.2-0.1-0.3-0.1c-0.3,0-0.6,0.2-0.7,0.6l-0.5,1.9
					c-0.2,0.9-0.8,1-1,1c-0.3,0-0.6-0.1-1-0.7l-1-1.7c-0.1-0.2-0.2-0.3-0.4-0.3l3.4,7.1c0.2,0.5,0.6,0.5,0.8,0l0.8-2.3
					c0.2-0.5,0.8-0.8,1.3-0.6l2.3,0.8c0.5,0.2,0.8-0.1,0.5-0.6L394,218.4z"/>
			</g>
			<g>
				<path class="st4" d="M386,218.3l-1.6,1.2c-0.3,0.2-0.6,0.3-0.8,0.3c-0.3,0-0.5-0.1-0.6-0.3c-0.1-0.2-0.3-0.5-0.2-1.1l0.2-0.9
					l-2.4,5c-0.2,0.5,0,0.8,0.5,0.6l2.3-0.8c0.5-0.2,1.1,0.1,1.3,0.6l0.8,2.3c0.2,0.5,0.5,0.6,0.8,0l1.7-3.5l-1.7-3.6
					C386.2,218.2,386.1,218.2,386,218.3z"/>
			</g>
		</g>
	</g>
	<g class="st13">
		<g class="st14">
			<path class="st4" d="M38.3,23.1h-16c-1.1,0-2.1,0.9-2.1,2.1v8.3c0,1.1,0.9,2.1,2.1,2.1h5.4v2.3H24c-0.5,0-1,0.4-1,1v0.4h14.6
				v-0.4c0-0.5-0.4-1-1-1h-3.6v-2.3h5.4c1.1,0,2.1-0.9,2.1-2.1v-8.3C40.4,24,39.5,23.1,38.3,23.1z M38.6,33.6H22v-8.7h16.6V33.6z"/>
		</g>
		<g class="st14">
			<path class="st4" d="M32.2,28.6l-3.8-2.2l0,4.4l1.3-0.9l1.3,2.2c0.2,0.4,0.6,0.5,0.9,0.3c0.3-0.2,0.4-0.6,0.2-1l-1.3-2.2
				L32.2,28.6z"/>
		</g>
	</g>
	<g class="st13">
		<g class="st14">
			<g>
				<path class="st4" d="M167,60.1c3.1-2.2,6.1-4.4,9.2-6.6c-0.4-0.4-0.9-0.6-1.5-0.6h-15.4c-0.6,0-1.1,0.2-1.5,0.6
					C160.9,55.7,164,57.9,167,60.1z"/>
			</g>
			<g>
				<path class="st4" d="M167.4,61.6c-0.2,0.1-0.5,0.1-0.7,0c-3.2-2.3-6.4-4.6-9.6-6.9c0,0.1,0,0.3,0,0.5v7.1c0,1.2,1,2.3,2.3,2.3
					h15.4c1.2,0,2.3-1,2.3-2.3v-7.1c0-0.2,0-0.3,0-0.5C173.8,57,170.6,59.3,167.4,61.6z"/>
			</g>
		</g>
		<g class="st14">
			<g>
				<path class="st4" d="M167,51.1c1.7-1.2,3.3-2.4,5-3.6c-0.2-0.2-0.5-0.3-0.8-0.3h-8.3c-0.3,0-0.6,0.1-0.8,0.3
					C163.7,48.8,165.4,50,167,51.1z"/>
			</g>
			<g>
				<path class="st4" d="M172.4,52.2v-3.7c0-0.1,0-0.2,0-0.2c-1.7,1.2-3.4,2.5-5.1,3.7c-0.1,0.1-0.3,0.1-0.4,0
					c-1.7-1.2-3.4-2.5-5.1-3.7c0,0.1,0,0.2,0,0.2v3.7H172.4z"/>
			</g>
		</g>
	</g>
	<g class="st13">
		<g class="st14">
			<path class="st4" d="M430,34.9c-5.3-0.9-10.3,2.2-12.2,7.1c-1.9,5,0.4,10.7,5,13.4c4.7,2.7,10.7,1.3,14-2.8
				c1.6-1.9,2.3-4.4,2.4-6.8C439.1,40.4,435.3,35.9,430,34.9z M438,45.4c-1.4,0-2.8,0-4.2-0.1c0-1.3-0.1-2.6-0.3-3.9
				c1.2,0.2,2.5,0.4,3.7,0.6C437.6,43.1,437.9,44.3,438,45.4z M432.8,45.3c-1.4,0-2.8,0-4.1,0c0-1.4,0-2.8,0-4.1
				c1.3,0,2.6,0.1,3.9,0.2C432.7,42.7,432.8,44,432.8,45.3z M427.7,40.2c-1.3,0-2.6,0.1-3.9,0.3c0.2-1.2,0.4-2.5,0.6-3.7
				c1-0.4,2.2-0.7,3.3-0.8C427.8,37.4,427.7,38.8,427.7,40.2z M427.7,41.2c0,1.4,0,2.8,0,4.1c-1.4,0-2.8,0-4.1,0
				c0-1.3,0.1-2.6,0.2-3.9C425.1,41.3,426.4,41.2,427.7,41.2z M422.6,45.3c-1.4,0-2.8,0-4.2,0.1c0-1.2,0.3-2.3,0.7-3.3
				c1.3-0.3,2.5-0.5,3.8-0.6C422.7,42.8,422.6,44.1,422.6,45.3z M422.6,46.2c0,1.3,0.1,2.6,0.3,3.9c-1.2-0.1-2.5-0.4-3.7-0.6
				c-0.4-1-0.7-2.2-0.8-3.3C419.8,46.2,421.2,46.2,422.6,46.2z M423.6,46.2c1.4,0,2.8,0,4.1,0c0,1.4,0,2.8,0,4.1
				c-1.3,0-2.6-0.1-3.9-0.2C423.6,48.9,423.6,47.6,423.6,46.2z M427.7,51.4c0,1.4,0,2.8,0.1,4.2c-1.2,0-2.3-0.3-3.3-0.7
				c-0.3-1.3-0.5-2.5-0.6-3.8C425.2,51.2,426.5,51.3,427.7,51.4z M428.6,51.4c1.3,0,2.6-0.1,3.9-0.3c-0.2,1.2-0.4,2.5-0.6,3.7
				c-1,0.4-2.1,0.7-3.3,0.7C428.6,54.2,428.6,52.8,428.6,51.4z M428.6,50.4c0-1.4,0-2.8,0-4.1c1.4,0,2.8,0,4.1,0
				c0,1.3-0.1,2.6-0.2,3.9C431.3,50.3,429.9,50.4,428.6,50.4z M433.7,46.2c1.4,0,2.8,0,4.2-0.1c-0.1,1.2-0.3,2.3-0.7,3.3
				c-1.3,0.3-2.5,0.5-3.7,0.6C433.6,48.8,433.7,47.5,433.7,46.2z M436.8,41.3c-1.2-0.3-2.3-0.5-3.5-0.7c-0.2-1.2-0.4-2.3-0.7-3.5
				C434.4,38,435.9,39.5,436.8,41.3z M431.9,36.7c0.3,1.3,0.5,2.5,0.6,3.8c-1.3-0.2-2.6-0.3-3.9-0.3c0-1.4,0-2.8-0.1-4.2
				C429.7,36,430.8,36.3,431.9,36.7z M423.7,37.1c-0.3,1.2-0.5,2.3-0.7,3.5c-1.2,0.2-2.3,0.4-3.5,0.7
				C420.4,39.5,421.9,38.1,423.7,37.1z M419.5,50.3c1.2,0.3,2.3,0.5,3.5,0.7c0.2,1.2,0.4,2.3,0.7,3.5
				C421.9,53.6,420.5,52.1,419.5,50.3z M432.7,54.4c0.3-1.2,0.5-2.3,0.7-3.5c1.1-0.2,2.3-0.4,3.5-0.7
				C435.9,52.1,434.4,53.5,432.7,54.4z"/>
		</g>
	</g>
	<g class="st13">
		<g class="st14">
			<rect x="29.6" y="155.9" class="st17" width="18.9" height="1"/>
		</g>
		<g class="st14">
			<g>
				<path class="st17" d="M73,156.9h-1c-0.3,0-0.5-0.2-0.5-0.5c0-0.3,0.2-0.5,0.5-0.5h1c0.3,0,0.5,0.2,0.5,0.5
					C73.5,156.7,73.3,156.9,73,156.9z"/>
			</g>
			<g>
				<path class="st17" d="M70.2,156.9h-1.8c-0.3,0-0.5-0.2-0.5-0.5c0-0.3,0.2-0.5,0.5-0.5h1.8c0.3,0,0.5,0.2,0.5,0.5
					C70.7,156.7,70.5,156.9,70.2,156.9z M66.6,156.9h-1.8c-0.3,0-0.5-0.2-0.5-0.5c0-0.3,0.2-0.5,0.5-0.5h1.8c0.3,0,0.5,0.2,0.5,0.5
					C67.1,156.7,66.8,156.9,66.6,156.9z M62.9,156.9h-1.8c-0.3,0-0.5-0.2-0.5-0.5c0-0.3,0.2-0.5,0.5-0.5h1.8c0.3,0,0.5,0.2,0.5,0.5
					C63.4,156.7,63.2,156.9,62.9,156.9z M59.3,156.9h-1.8c-0.3,0-0.5-0.2-0.5-0.5c0-0.3,0.2-0.5,0.5-0.5h1.8c0.3,0,0.5,0.2,0.5,0.5
					C59.8,156.7,59.6,156.9,59.3,156.9z M55.7,156.9h-1.8c-0.3,0-0.5-0.2-0.5-0.5c0-0.3,0.2-0.5,0.5-0.5h1.8c0.3,0,0.5,0.2,0.5,0.5
					C56.2,156.7,56,156.9,55.7,156.9z"/>
			</g>
			<g>
				<path class="st17" d="M52.1,156.9h-1c-0.3,0-0.5-0.2-0.5-0.5c0-0.3,0.2-0.5,0.5-0.5h1c0.3,0,0.5,0.2,0.5,0.5
					C52.6,156.7,52.4,156.9,52.1,156.9z"/>
			</g>
		</g>
		<g class="st14">
			<path class="st17" d="M25.5,160.7c-2.3,0-4.2-1.9-4.2-4.2c0-2.3,1.9-4.2,4.2-4.2c2.3,0,4.2,1.9,4.2,4.2
				C29.8,158.8,27.9,160.7,25.5,160.7z M25.5,153.2c-1.8,0-3.2,1.5-3.2,3.2c0,1.8,1.5,3.2,3.2,3.2c1.8,0,3.2-1.5,3.2-3.2
				C28.8,154.7,27.3,153.2,25.5,153.2z"/>
		</g>
		<g class="st14">
			<path class="st17" d="M72.5,161.6v-10.3l9.7,5.2L72.5,161.6z M73.5,153v7l6.6-3.5L73.5,153z"/>
		</g>
	</g>
	<g class="st13">
		<g class="st14">
			<g>
				<path class="st17" d="M471.2,188c-0.3,0-0.5-0.2-0.5-0.5v-1c0-0.3,0.2-0.5,0.5-0.5s0.5,0.2,0.5,0.5v1
					C471.7,187.7,471.4,188,471.2,188z"/>
			</g>
			<g>
				<path class="st17" d="M471.2,228.7c-0.3,0-0.5-0.2-0.5-0.5v-2c0-0.3,0.2-0.5,0.5-0.5s0.5,0.2,0.5,0.5v2
					C471.7,228.5,471.4,228.7,471.2,228.7z M471.2,224.6c-0.3,0-0.5-0.2-0.5-0.5v-2c0-0.3,0.2-0.5,0.5-0.5s0.5,0.2,0.5,0.5v2
					C471.7,224.4,471.4,224.6,471.2,224.6z M471.2,220.5c-0.3,0-0.5-0.2-0.5-0.5v-2c0-0.3,0.2-0.5,0.5-0.5s0.5,0.2,0.5,0.5v2
					C471.7,220.3,471.4,220.5,471.2,220.5z M471.2,216.5c-0.3,0-0.5-0.2-0.5-0.5v-2c0-0.3,0.2-0.5,0.5-0.5s0.5,0.2,0.5,0.5v2
					C471.7,216.2,471.4,216.5,471.2,216.5z M471.2,212.4c-0.3,0-0.5-0.2-0.5-0.5v-2c0-0.3,0.2-0.5,0.5-0.5s0.5,0.2,0.5,0.5v2
					C471.7,212.2,471.4,212.4,471.2,212.4z M471.2,208.3c-0.3,0-0.5-0.2-0.5-0.5v-2c0-0.3,0.2-0.5,0.5-0.5s0.5,0.2,0.5,0.5v2
					C471.7,208.1,471.4,208.3,471.2,208.3z M471.2,204.2c-0.3,0-0.5-0.2-0.5-0.5v-2c0-0.3,0.2-0.5,0.5-0.5s0.5,0.2,0.5,0.5v2
					C471.7,204,471.4,204.2,471.2,204.2z M471.2,200.2c-0.3,0-0.5-0.2-0.5-0.5v-2c0-0.3,0.2-0.5,0.5-0.5s0.5,0.2,0.5,0.5v2
					C471.7,199.9,471.4,200.2,471.2,200.2z M471.2,196.1c-0.3,0-0.5-0.2-0.5-0.5v-2c0-0.3,0.2-0.5,0.5-0.5s0.5,0.2,0.5,0.5v2
					C471.7,195.9,471.4,196.1,471.2,196.1z M471.2,192c-0.3,0-0.5-0.2-0.5-0.5v-2c0-0.3,0.2-0.5,0.5-0.5s0.5,0.2,0.5,0.5v2
					C471.7,191.8,471.4,192,471.2,192z"/>
			</g>
			<g>
				<path class="st17" d="M471.2,231.7c-0.3,0-0.5-0.2-0.5-0.5v-1c0-0.3,0.2-0.5,0.5-0.5s0.5,0.2,0.5,0.5v1
					C471.7,231.5,471.4,231.7,471.2,231.7z"/>
			</g>
		</g>
		<g class="st14">
			<path class="st17" d="M476.3,187H466l5.1-9.8L476.3,187z M467.7,186h7l-3.5-6.6L467.7,186z"/>
		</g>
		<g class="st14">
			<path class="st17" d="M471.2,241.3l-5.2-9.7h10.3L471.2,241.3z M467.7,232.6l3.5,6.6l3.5-6.6H467.7z"/>
		</g>
	</g>
	<g class="st13">
		<path class="st16" d="M36.2,70.7c-0.7,0-1.4-0.1-2-0.2l0.2-1c0.6,0.1,1.2,0.2,1.8,0.2L36.2,70.7z M38.2,70.4l-0.2-1
			c0.6-0.1,1.2-0.3,1.7-0.6l0.4,0.9C39.5,70.1,38.9,70.3,38.2,70.4z M32.2,69.7c-0.6-0.3-1.2-0.7-1.7-1.1l0.6-0.8
			c0.5,0.4,1,0.7,1.5,1L32.2,69.7z M41.9,68.7l-0.6-0.8c0.5-0.4,0.9-0.8,1.3-1.3l0.8,0.6C42.9,67.8,42.4,68.3,41.9,68.7z M29,67.2
			c-0.4-0.5-0.8-1.1-1.1-1.7l0.9-0.4c0.3,0.5,0.6,1.1,1,1.5L29,67.2z M44.4,65.5l-0.9-0.4c0.3-0.5,0.5-1.1,0.6-1.7l1,0.2
			C45,64.2,44.7,64.9,44.4,65.5z M27.3,63.5c-0.1-0.7-0.2-1.3-0.2-2l1,0l0,0.1c0,0.6,0.1,1.2,0.2,1.8L27.3,63.5z M44.3,61.5
			L44.3,61.5c0-0.6-0.1-1.3-0.2-1.9l1-0.2c0.2,0.7,0.2,1.3,0.2,2L44.3,61.5z M28.2,59.7l-1-0.2c0.2-0.7,0.4-1.3,0.7-1.9l0.9,0.4
			C28.6,58.5,28.4,59.1,28.2,59.7z M43.5,58c-0.3-0.5-0.6-1.1-1-1.5l0.8-0.6c0.4,0.5,0.8,1.1,1.1,1.7L43.5,58z M29.8,56.4L29,55.8
			c0.4-0.5,0.9-1,1.5-1.4l0.6,0.8C30.6,55.5,30.2,55.9,29.8,56.4z M41.3,55.1c-0.5-0.4-1-0.7-1.5-1l0.4-0.9c0.6,0.3,1.2,0.7,1.7,1.1
			L41.3,55.1z M32.7,54.1l-0.4-0.9c0.6-0.3,1.3-0.5,1.9-0.7l0.2,1C33.8,53.7,33.2,53.9,32.7,54.1z M38,53.6
			c-0.6-0.1-1.2-0.2-1.8-0.2l0-1c0.7,0,1.4,0.1,2,0.2L38,53.6z"/>
	</g>
	<g class="st13">
		<g class="st14">
			<path class="st4" d="M465.5,46.5h-1V34.8c0-6.5-2.1-14.3-12.2-14.3H422v-1h30.3c8.5,0,13.2,5.4,13.2,15.3V46.5z"/>
		</g>
		<g class="st14">
			<path class="st4" d="M418.7,24.2c-2.3,0-4.2-1.9-4.2-4.2c0-2.3,1.9-4.2,4.2-4.2c2.3,0,4.2,1.9,4.2,4.2
				C423,22.3,421.1,24.2,418.7,24.2z M418.7,16.7c-1.8,0-3.2,1.5-3.2,3.2c0,1.8,1.5,3.2,3.2,3.2c1.8,0,3.2-1.5,3.2-3.2
				C422,18.2,420.5,16.7,418.7,16.7z"/>
		</g>
		<g class="st14">
			<path class="st4" d="M465,53.8c-2.3,0-4.2-1.9-4.2-4.2c0-2.3,1.9-4.2,4.2-4.2c2.3,0,4.2,1.9,4.2,4.2
				C469.2,51.9,467.3,53.8,465,53.8z M465,46.3c-1.8,0-3.2,1.5-3.2,3.2c0,1.8,1.5,3.2,3.2,3.2c1.8,0,3.2-1.5,3.2-3.2
				C468.2,47.8,466.8,46.3,465,46.3z"/>
		</g>
	</g>
	<g class="st13">
		<g class="st14">
			<g>
				<path class="st4" d="M209.6,65h-1c-0.3,0-0.5-0.2-0.5-0.5c0-0.3,0.2-0.5,0.5-0.5h1c0.3,0,0.5,0.2,0.5,0.5
					C210.1,64.8,209.9,65,209.6,65z"/>
			</g>
			<g>
				<path class="st4" d="M237.2,65h-2c-0.3,0-0.5-0.2-0.5-0.5c0-0.3,0.2-0.5,0.5-0.5h2c0.3,0,0.5,0.2,0.5,0.5
					C237.7,64.8,237.5,65,237.2,65z M233.3,65h-2c-0.3,0-0.5-0.2-0.5-0.5c0-0.3,0.2-0.5,0.5-0.5h2c0.3,0,0.5,0.2,0.5,0.5
					C233.8,64.8,233.6,65,233.3,65z M229.3,65h-2c-0.3,0-0.5-0.2-0.5-0.5c0-0.3,0.2-0.5,0.5-0.5h2c0.3,0,0.5,0.2,0.5,0.5
					C229.8,64.8,229.6,65,229.3,65z M225.4,65h-2c-0.3,0-0.5-0.2-0.5-0.5c0-0.3,0.2-0.5,0.5-0.5h2c0.3,0,0.5,0.2,0.5,0.5
					C225.9,64.8,225.7,65,225.4,65z M221.5,65h-2c-0.3,0-0.5-0.2-0.5-0.5c0-0.3,0.2-0.5,0.5-0.5h2c0.3,0,0.5,0.2,0.5,0.5
					C222,64.8,221.7,65,221.5,65z M217.5,65h-2c-0.3,0-0.5-0.2-0.5-0.5c0-0.3,0.2-0.5,0.5-0.5h2c0.3,0,0.5,0.2,0.5,0.5
					C218,64.8,217.8,65,217.5,65z M213.6,65h-2c-0.3,0-0.5-0.2-0.5-0.5c0-0.3,0.2-0.5,0.5-0.5h2c0.3,0,0.5,0.2,0.5,0.5
					C214.1,64.8,213.9,65,213.6,65z"/>
			</g>
			<g>
				<path class="st4" d="M240.2,65h-1c-0.3,0-0.5-0.2-0.5-0.5c0-0.3,0.2-0.5,0.5-0.5h1c0.3,0,0.5,0.2,0.5,0.5
					C240.7,64.8,240.5,65,240.2,65z"/>
			</g>
		</g>
		<g class="st14">
			<path class="st4" d="M209.1,68.4l-7.3-3.9l7.3-3.9V68.4z M203.9,64.6l4.2,2.2v-4.4L203.9,64.6z"/>
		</g>
		<g class="st14">
			<path class="st4" d="M240.3,68.4v-7.8l7.3,3.9L240.3,68.4z M241.3,62.3v4.4l4.2-2.2L241.3,62.3z"/>
		</g>
	</g>
	<g class="st13">
		<g class="st14">
			<g>
				<path class="st17" d="M272.8,263h-1c-0.3,0-0.5-0.2-0.5-0.5s0.2-0.5,0.5-0.5h1c0.3,0,0.5,0.2,0.5,0.5S273.1,263,272.8,263z"/>
			</g>
			<g>
				<path class="st17" d="M269.8,263h-2c-0.3,0-0.5-0.2-0.5-0.5s0.2-0.5,0.5-0.5h2c0.3,0,0.5,0.2,0.5,0.5S270,263,269.8,263z
					 M265.7,263h-2c-0.3,0-0.5-0.2-0.5-0.5s0.2-0.5,0.5-0.5h2c0.3,0,0.5,0.2,0.5,0.5S266,263,265.7,263z M261.6,263h-2
					c-0.3,0-0.5-0.2-0.5-0.5s0.2-0.5,0.5-0.5h2c0.3,0,0.5,0.2,0.5,0.5S261.9,263,261.6,263z M257.6,263h-2c-0.3,0-0.5-0.2-0.5-0.5
					s0.2-0.5,0.5-0.5h2c0.3,0,0.5,0.2,0.5,0.5S257.8,263,257.6,263z M253.5,263h-2c-0.3,0-0.5-0.2-0.5-0.5s0.2-0.5,0.5-0.5h2
					c0.3,0,0.5,0.2,0.5,0.5S253.8,263,253.5,263z M249.4,263h-2c-0.3,0-0.5-0.2-0.5-0.5s0.2-0.5,0.5-0.5h2c0.3,0,0.5,0.2,0.5,0.5
					S249.7,263,249.4,263z M245.3,263h-2c-0.3,0-0.5-0.2-0.5-0.5s0.2-0.5,0.5-0.5h2c0.3,0,0.5,0.2,0.5,0.5S245.6,263,245.3,263z
					 M241.3,263h-2c-0.3,0-0.5-0.2-0.5-0.5s0.2-0.5,0.5-0.5h2c0.3,0,0.5,0.2,0.5,0.5S241.5,263,241.3,263z M237.2,263h-2
					c-0.3,0-0.5-0.2-0.5-0.5s0.2-0.5,0.5-0.5h2c0.3,0,0.5,0.2,0.5,0.5S237.5,263,237.2,263z M233.1,263h-2c-0.3,0-0.5-0.2-0.5-0.5
					s0.2-0.5,0.5-0.5h2c0.3,0,0.5,0.2,0.5,0.5S233.4,263,233.1,263z"/>
			</g>
			<g>
				<path class="st17" d="M229,263h-1c-0.3,0-0.5-0.2-0.5-0.5s0.2-0.5,0.5-0.5h1c0.3,0,0.5,0.2,0.5,0.5S229.3,263,229,263z"/>
			</g>
		</g>
		<g class="st14">
			<path class="st17" d="M272.3,267.7l0-10.3l9.8,5.1L272.3,267.7z M273.3,259l0,7l6.6-3.5L273.3,259z"/>
		</g>
		<g class="st14">
			<path class="st17" d="M227.7,267.7l-9.7-5.1l9.7-5.2V267.7z M220.1,262.5l6.6,3.5v-7L220.1,262.5z"/>
		</g>
	</g>
	<g class="st13">
		<g class="st14">
			<path class="st17" d="M402.4,264.7h-10v-1h10c5.5,0,12.1-1.8,12.1-10.3v-25.9h1v25.9C415.5,260.6,410.9,264.7,402.4,264.7z"/>
		</g>
		<g class="st14">
			<path class="st17" d="M415,228.4c-2,0-3.7-1.7-3.7-3.7c0-2,1.7-3.7,3.7-3.7c2,0,3.7,1.7,3.7,3.7
				C418.7,226.7,417.1,228.4,415,228.4z M415,222c-1.5,0-2.7,1.2-2.7,2.7c0,1.5,1.2,2.7,2.7,2.7c1.5,0,2.7-1.2,2.7-2.7
				C417.7,223.2,416.5,222,415,222z"/>
		</g>
		<g class="st14">
			<path class="st17" d="M389.8,267.8c-2,0-3.7-1.7-3.7-3.7c0-2,1.7-3.7,3.7-3.7c2,0,3.7,1.7,3.7,3.7
				C393.5,266.2,391.9,267.8,389.8,267.8z M389.8,261.5c-1.5,0-2.7,1.2-2.7,2.7c0,1.5,1.2,2.7,2.7,2.7c1.5,0,2.7-1.2,2.7-2.7
				C392.5,262.7,391.3,261.5,389.8,261.5z"/>
		</g>
	</g>
	<g class="st13">
		<path class="st18" d="M25.5,257.7c-0.7,0-1.4-0.1-2.1-0.2l0.2-1c0.6,0.1,1.3,0.2,1.9,0.2L25.5,257.7z M27.6,257.6l-0.2-1
			c0.6-0.1,1.2-0.3,1.8-0.5l0.3,0.9C28.9,257.3,28.3,257.5,27.6,257.6z M21.4,257c-0.6-0.2-1.3-0.5-1.9-0.9l0.5-0.9
			c0.5,0.3,1.1,0.6,1.7,0.8L21.4,257z M31.5,256.2l-0.5-0.9c0.6-0.3,1.1-0.7,1.6-1.1l0.6,0.8C32.6,255.4,32.1,255.8,31.5,256.2z
			 M17.9,254.9c-0.5-0.4-1-0.9-1.5-1.5l0.8-0.6c0.4,0.5,0.9,0.9,1.3,1.3L17.9,254.9z M34.7,253.5l-0.8-0.6c0.4-0.5,0.8-1,1.1-1.6
			l0.9,0.5C35.5,252.4,35.1,253,34.7,253.5z M15.2,251.8c-0.3-0.6-0.6-1.2-0.9-1.9l0.9-0.3c0.2,0.6,0.5,1.2,0.8,1.7L15.2,251.8z
			 M36.7,249.9l-0.9-0.3c0.2-0.6,0.4-1.2,0.5-1.8l1,0.2C37.2,248.6,37,249.3,36.7,249.9z M13.8,247.9c-0.1-0.7-0.2-1.4-0.2-2l1,0
			l0,0.1c0,0.6,0.1,1.2,0.2,1.8L13.8,247.9z M36.5,245.9L36.5,245.9c0-0.7-0.1-1.3-0.2-1.9l1-0.2c0.1,0.7,0.2,1.4,0.2,2.1
			L36.5,245.9z M14.8,243.9l-1-0.2c0.1-0.7,0.3-1.4,0.5-2l0.9,0.3C15.1,242.7,14.9,243.3,14.8,243.9z M35.8,242.1
			c-0.2-0.6-0.5-1.2-0.8-1.7l0.9-0.5c0.3,0.6,0.6,1.2,0.9,1.9L35.8,242.1z M16.1,240.3l-0.9-0.5c0.3-0.6,0.8-1.2,1.2-1.7l0.8,0.6
			C16.8,239.3,16.4,239.8,16.1,240.3z M33.9,238.8c-0.4-0.5-0.9-0.9-1.3-1.3l0.6-0.8c0.5,0.4,1,0.9,1.5,1.5L33.9,238.8z M18.5,237.4
			l-0.6-0.8c0.5-0.4,1.1-0.8,1.7-1.2l0.5,0.9C19.5,236.7,19,237,18.5,237.4z M31,236.4c-0.6-0.3-1.1-0.6-1.7-0.8l0.3-0.9
			c0.6,0.2,1.3,0.5,1.9,0.9L31,236.4z M21.8,235.5l-0.3-0.9c0.6-0.2,1.3-0.4,2-0.5l0.2,1C23,235.2,22.4,235.3,21.8,235.5z
			 M27.5,235.1c-0.6-0.1-1.3-0.2-1.9-0.2l0-1c0.7,0,1.4,0.1,2.1,0.2L27.5,235.1z"/>
	</g>
	<g class="st13">
		<g class="st14">
			<polygon class="st17" points="441.7,239.3 441.6,239.2 441.1,239 441.8,236.6 442.6,239 442,239.2 442,239.3 441.8,239.3 			"/>
		</g>
		<g class="st14">
			
				<rect x="442.6" y="241.1" transform="matrix(0.9511 -0.3089 0.3089 0.9511 -53.1164 148.7307)" class="st17" width="1" height="2.1"/>
		</g>
		<g class="st14">
			<polygon class="st17" points="445.4,246.5 444,246.5 443.6,245.2 444.5,244.9 444.7,245.5 445.4,245.5 			"/>
		</g>
		<g class="st14">
			<rect x="447.4" y="245.5" class="st17" width="2.1" height="1"/>
		</g>
		<g class="st14">
			<polygon class="st17" points="452,247 451.7,246.5 451.5,246.5 451.5,246.3 451.4,246.2 451.5,246.1 451.5,245.5 454.1,245.5 			
				"/>
		</g>
		<g class="st14">
			
				<rect x="448.2" y="247.9" transform="matrix(0.8088 -0.5881 0.5881 0.8088 -60.1791 311.6637)" class="st17" width="2.1" height="1"/>
		</g>
		<g class="st14">
			<polygon class="st17" points="445.8,251.9 445.3,250.6 446.4,249.8 447,250.6 446.5,251 446.7,251.6 			"/>
		</g>
		<g class="st14">
			
				<rect x="446.7" y="253.6" transform="matrix(0.9511 -0.309 0.309 0.9511 -56.8062 150.6314)" class="st17" width="1" height="2.1"/>
		</g>
		<g class="st14">
			<polygon class="st17" points="449.4,259.9 447.4,258.4 447.7,257.9 447.7,257.8 447.8,257.7 447.9,257.6 448,257.6 448.6,257.5 
							"/>
		</g>
		<g class="st14">
			
				<rect x="444.7" y="255.1" transform="matrix(0.5878 -0.809 0.809 0.5878 -23.7489 465.7007)" class="st17" width="1" height="2.1"/>
		</g>
		<g class="st14">
			<polygon class="st17" points="442.4,254.7 441.8,254.4 441.3,254.7 440.7,253.9 441.8,253.1 442.9,253.9 			"/>
		</g>
		<g class="st14">
			
				<rect x="437.5" y="255.7" transform="matrix(0.8088 -0.5881 0.5881 0.8088 -66.7943 306.8632)" class="st17" width="2.1" height="1"/>
		</g>
		<g class="st14">
			<polygon class="st17" points="434.3,259.9 435.1,257.5 435.6,257.6 435.7,257.6 435.8,257.7 436,257.8 436,257.9 436.3,258.4 			
				"/>
		</g>
		<g class="st14">
			
				<rect x="435.5" y="254.2" transform="matrix(0.3086 -0.9512 0.9512 0.3086 59.552 591.2722)" class="st17" width="2.1" height="1"/>
		</g>
		<g class="st14">
			<polygon class="st17" points="437.9,251.9 437,251.6 437.2,251 436.7,250.6 437.2,249.8 438.3,250.6 			"/>
		</g>
		<g class="st14">
			
				<rect x="434" y="247.4" transform="matrix(0.5876 -0.8092 0.8092 0.5876 -21.8037 453.9918)" class="st17" width="1" height="2.1"/>
		</g>
		<g class="st14">
			<polygon class="st17" points="431.7,247 429.6,245.5 432.1,245.5 432.1,246.1 432.3,246.2 432.1,246.3 432.1,246.5 432,246.5 			
				"/>
		</g>
		<g class="st14">
			<rect x="434.2" y="245.5" class="st17" width="2.1" height="1"/>
		</g>
		<g class="st14">
			<polygon class="st17" points="439.7,246.5 438.3,246.5 438.3,245.5 439,245.5 439.2,244.9 440.1,245.2 			"/>
		</g>
		<g class="st14">
			
				<rect x="439.6" y="241.6" transform="matrix(0.3086 -0.9512 0.9512 0.3086 74.3385 586.4642)" class="st17" width="2.1" height="1"/>
		</g>
	</g>
	<g class="st13">
		<g class="st14">
			<polygon class="st4" points="382.2,26.8 382.1,26.8 381.9,26.8 381.8,26.7 381.3,26.5 382.1,24.1 382.8,26.5 382.3,26.7 			"/>
		</g>
		<g class="st14">
			<rect x="382.5" y="28" transform="matrix(0.951 -0.3093 0.3093 0.951 9.9036 119.8678)" class="st4" width="1" height="1.4"/>
		</g>
		<g class="st14">
			<polygon class="st4" points="385,32.2 383.6,32.2 383.2,30.9 384.1,30.6 384.3,31.2 385,31.2 			"/>
		</g>
		<g class="st14">
			<rect x="386.4" y="31.2" class="st4" width="1.4" height="1"/>
		</g>
		<g class="st14">
			<polygon class="st4" points="389.7,32.7 389.4,32.2 389.2,32.2 389.2,32 389.1,31.8 389.2,31.8 389.2,31.2 391.8,31.2 			"/>
		</g>
		<g class="st14">
			<rect x="387" y="33" transform="matrix(0.8089 -0.588 0.588 0.8089 54.4037 234.3666)" class="st4" width="1.4" height="1"/>
		</g>
		<g class="st14">
			<polygon class="st4" points="385,36.4 384.6,35.1 385.7,34.3 386.3,35.2 385.8,35.5 386,36.1 			"/>
		</g>
		<g class="st14">
			<rect x="385.6" y="37.6" transform="matrix(0.951 -0.3093 0.3093 0.951 7.0855 121.3041)" class="st4" width="1" height="1.4"/>
		</g>
		<g class="st14">
			<polygon class="st4" points="388.1,42.6 386,41.1 386.4,40.6 386.3,40.5 386.5,40.4 386.6,40.3 386.7,40.4 387.3,40.2 			"/>
		</g>
		<g class="st14">
			
				<rect x="384.1" y="38.7" transform="matrix(0.5876 -0.8092 0.8092 0.5876 126.6909 327.4479)" class="st4" width="1" height="1.4"/>
		</g>
		<g class="st14">
			<polygon class="st4" points="382.6,38.6 382.1,38.2 381.5,38.6 380.9,37.8 382.1,37 383.2,37.8 			"/>
		</g>
		<g class="st14">
			
				<rect x="378.8" y="38.9" transform="matrix(0.8092 -0.5876 0.5876 0.8092 49.2541 230.5289)" class="st4" width="1.4" height="1"/>
		</g>
		<g class="st14">
			<polygon class="st4" points="376,42.6 376.8,40.2 377.4,40.4 377.5,40.3 377.6,40.4 377.8,40.5 377.7,40.6 378.1,41.1 			"/>
		</g>
		<g class="st14">
			
				<rect x="377.3" y="37.8" transform="matrix(0.3094 -0.9509 0.9509 0.3094 224.5938 385.8697)" class="st4" width="1.4" height="1"/>
		</g>
		<g class="st14">
			<polygon class="st4" points="379.1,36.4 378.1,36.1 378.3,35.5 377.8,35.2 378.4,34.3 379.5,35.1 			"/>
		</g>
		<g class="st14">
			
				<rect x="375.9" y="32.8" transform="matrix(0.5876 -0.8092 0.8092 0.5876 128.1263 318.3878)" class="st4" width="1" height="1.4"/>
		</g>
		<g class="st14">
			<polygon class="st4" points="374.4,32.7 372.3,31.2 374.9,31.2 374.9,31.8 375,31.9 374.9,32 374.9,32.2 374.8,32.2 			"/>
		</g>
		<g class="st14">
			<rect x="376.3" y="31.2" class="st4" width="1.4" height="1"/>
		</g>
		<g class="st14">
			<polygon class="st4" points="380.5,32.2 379.1,32.2 379.1,31.2 379.8,31.2 380,30.6 380.9,30.9 			"/>
		</g>
		<g class="st14">
			
				<rect x="380.4" y="28.2" transform="matrix(0.3086 -0.9512 0.9512 0.3086 236.1872 382.3282)" class="st4" width="1.4" height="1"/>
		</g>
	</g>
	<g class="st13">
		<polygon class="st16" points="205.8,40.9 206.9,43.2 209.3,43.5 207.5,45.3 208,47.7 205.8,46.6 203.6,47.7 204,45.3 202.2,43.5 
			204.7,43.2 		"/>
		<path class="st16" d="M208.6,48.6l-2.9-1.5l-2.9,1.5l0.5-3.2l-2.3-2.3l3.2-0.5l1.4-2.9l1.4,2.9l3.2,0.5l-2.3,2.3L208.6,48.6z
			 M205.8,46l1.5,0.8l-0.3-1.7l1.2-1.2l-1.7-0.3l-0.8-1.6l-0.8,1.6l-1.7,0.3l1.2,1.2l-0.3,1.7L205.8,46z"/>
	</g>
	<g class="st13">
		<path class="st16" d="M116.7,102.7c0,1.3-1.1,2.4-2.4,2.4c-1.3,0-2.4-1.1-2.4-2.4c0-1.3,1.1-2.4,2.4-2.4
			C115.6,100.3,116.7,101.4,116.7,102.7z"/>
		<path class="st16" d="M114.3,105.7c-1.6,0-2.9-1.3-2.9-2.9c0-1.6,1.3-2.9,2.9-2.9c1.6,0,2.9,1.3,2.9,2.9
			C117.2,104.4,115.9,105.7,114.3,105.7z M114.3,100.8c-1.1,0-1.9,0.9-1.9,1.9c0,1.1,0.9,1.9,1.9,1.9c1.1,0,1.9-0.9,1.9-1.9
			C116.2,101.7,115.3,100.8,114.3,100.8z"/>
	</g>
	<g class="st13">
		<path class="st16" d="M382.1,64.7c-2.5,0-4.6-2.1-4.6-4.6c0-2.5,2.1-4.6,4.6-4.6c2.5,0,4.6,2.1,4.6,4.6
			C386.7,62.7,384.6,64.7,382.1,64.7z M382.1,56.5c-2,0-3.6,1.6-3.6,3.6c0,2,1.6,3.6,3.6,3.6c2,0,3.6-1.6,3.6-3.6
			C385.7,58.2,384,56.5,382.1,56.5z"/>
	</g>
	<g class="st13">
		<polygon class="st16" points="54.5,9.5 55.6,11.7 58,12.1 56.3,13.8 56.7,16.2 54.5,15.1 52.3,16.2 52.7,13.8 50.9,12.1 
			53.4,11.7 		"/>
		<path class="st16" d="M57.3,17.1l-2.9-1.5l-2.9,1.5l0.5-3.2l-2.3-2.3l3.2-0.5l1.4-2.9l1.4,2.9l3.2,0.5L56.8,14L57.3,17.1z
			 M54.5,14.5l1.5,0.8l-0.3-1.7l1.2-1.2l-1.7-0.3l-0.8-1.6l-0.8,1.6L52,12.4l1.2,1.2L53,15.3L54.5,14.5z"/>
	</g>
	<g class="st13">
		<polygon class="st16" points="475.5,64.2 476.6,66.4 479,66.8 477.3,68.5 477.7,71 475.5,69.8 473.3,71 473.7,68.5 471.9,66.8 
			474.4,66.4 		"/>
		<path class="st16" d="M478.3,71.9l-2.9-1.5l-2.9,1.5l0.5-3.2l-2.3-2.3l3.2-0.5l1.4-2.9l1.4,2.9l3.2,0.5l-2.3,2.3L478.3,71.9z
			 M475.5,69.3l1.5,0.8l-0.3-1.7l1.2-1.2l-1.7-0.3l-0.8-1.6l-0.8,1.6l-1.7,0.3l1.2,1.2l-0.3,1.7L475.5,69.3z"/>
	</g>
	<g class="st13">
		<polygon class="st18" points="120.2,205.5 121.3,207.7 123.8,208 122,209.8 122.4,212.2 120.2,211.1 118,212.2 118.5,209.8 
			116.7,208 119.1,207.7 		"/>
	</g>
	<g class="st13">
		<polygon class="st18" points="422.5,88.3 423.6,90.6 426,90.9 424.2,92.7 424.7,95.1 422.5,93.9 420.3,95.1 420.7,92.7 
			418.9,90.9 421.4,90.6 		"/>
	</g>
	<g class="st13">
		<path class="st18" d="M486.5,120.1c-2.5,0-4.6-2.1-4.6-4.6c0-2.5,2.1-4.6,4.6-4.6c2.5,0,4.6,2.1,4.6,4.6
			C491.1,118.1,489,120.1,486.5,120.1z M486.5,111.9c-2,0-3.6,1.6-3.6,3.6c0,2,1.6,3.6,3.6,3.6c2,0,3.6-1.6,3.6-3.6
			C490.1,113.6,488.4,111.9,486.5,111.9z"/>
	</g>
	<g>
		<path class="st17" d="M152.8,265.6c-2.5,0-4.6-2.1-4.6-4.6c0-2.5,2.1-4.6,4.6-4.6c2.5,0,4.6,2.1,4.6,4.6
			C157.4,263.5,155.3,265.6,152.8,265.6z M152.8,257.4c-2,0-3.6,1.6-3.6,3.6c0,2,1.6,3.6,3.6,3.6c2,0,3.6-1.6,3.6-3.6
			C156.4,259,154.7,257.4,152.8,257.4z"/>
	</g>
</g>
</svg>
